<svg width="41" height="137" viewBox="0 0 41 137" fill="none" xmlns="http://www.w3.org/2000/svg">
<path d="M11.3401 60.7776C9.65616 61.0929 6.84046 48.214 4.63136 51.195C4.00364 52.0416 3.83464 52.9722 4.12436 53.9869C5.55484 59.0064 7.14829 63.4915 8.9047 67.4423C9.63805 69.1174 11.476 70.2072 11.4035 72.4767C11.2406 77.6553 12.3904 82.978 12.6801 88.2016C12.997 93.7765 6.92195 83.5544 5.71781 81.6991C4.05194 79.1143 2.07823 80.2761 3.12846 82.951C5.37377 88.6369 8.449 93.8816 12.3542 98.6849C12.5994 98.9928 12.753 99.292 12.7887 99.5315C13.4889 104.689 13.3833 109.853 12.4719 115.022C12.0675 117.316 11.1953 117.514 9.85534 115.617C7.6402 112.476 5.75101 109.117 4.18774 105.539C4.06545 105.26 3.8431 105.036 3.56303 104.908C-4.43137 101.297 8.69647 122.524 10.1541 125.046C10.2289 125.169 10.2786 125.305 10.3003 125.445C10.3221 125.586 10.3155 125.729 10.2809 125.866C9.23064 130.069 8.04461 134.232 6.72277 138.357C6.19766 139.978 6.41494 141.257 8.0446 141.915C8.31234 142.025 8.62538 142.028 8.92281 141.924C12.9245 140.51 13.1962 132.629 14.2283 128.883C14.5542 127.706 15.2694 126.892 16.374 126.442L29.6829 121.011C29.9968 120.885 30.3016 120.84 30.5973 120.876C34.5176 121.345 35.6855 114.455 30.9504 115.77C26.1882 117.097 21.5255 118.523 16.9625 120.048C16.8677 120.08 16.7664 120.085 16.6686 120.063C16.5708 120.041 16.4797 119.992 16.4041 119.921C16.3286 119.851 16.2711 119.761 16.2373 119.66C16.2034 119.559 16.1944 119.45 16.211 119.345C17.1586 112.981 17.7019 106.583 17.8407 100.153C17.8434 100.003 17.8792 99.8598 17.9445 99.7379C18.0097 99.6161 18.102 99.52 18.2119 99.4594C24.8995 95.6828 31.7532 92.2394 38.7728 89.1293C39 89.0312 39.2006 88.9229 39.3525 88.8164C39.5043 88.7098 39.6014 88.6093 39.6329 88.5258C40.0796 87.343 40.1007 86.0942 39.6963 84.7793C39.4186 83.8546 38.6702 83.7165 37.451 84.365C31.6868 87.4271 25.7898 90.219 19.7601 92.7408C18.3356 93.3352 17.56 92.8879 17.4333 91.3988L16.3016 77.8535C16.2913 77.7081 16.3261 77.5617 16.4017 77.4322C16.4772 77.3026 16.5903 77.1955 16.7271 77.124C22.6784 73.9057 28.0744 69.952 32.9151 65.2628C33.1019 65.0777 33.2336 64.7774 33.2863 64.4162C33.4855 63.0292 32.9905 61.9425 31.8015 61.1559C31.5189 60.9705 31.1866 60.8774 30.8529 60.8904C30.5191 60.9033 30.2013 61.0216 29.9455 61.228C26.1882 64.2541 21.4441 68.9193 16.9896 70.4954C16.9411 70.5139 16.8889 70.5199 16.8372 70.513C16.7855 70.5061 16.7359 70.4864 16.6925 70.4556C16.6492 70.4248 16.6132 70.3837 16.5877 70.3358C16.5622 70.2879 16.5479 70.2345 16.546 70.1802C16.2623 63.6236 16.377 57.0671 16.8901 50.5106C17.1979 46.5118 16.8991 44.4133 20.6473 42.9273C25.3613 41.06 29.6497 39.67 33.5126 38.7574C35.1604 38.3731 35.8153 37.4695 35.4773 36.0465C35.1151 34.5095 34.1766 33.9331 32.6616 34.3173L21.607 37.1273C19.4462 37.6797 18.6706 36.9141 19.2802 34.8307C20.4391 30.859 20.8918 23.9422 23.6803 20.4928C25.1651 18.6555 27.9536 18.4844 29.7825 17.4937C30.706 16.9954 31.6174 16.473 32.5167 15.9266C32.6917 15.8186 32.9754 15.7555 33.3678 15.7375C35.5889 15.6354 37.4389 14.7678 38.9177 13.1347C38.9906 13.0572 39.0442 12.9441 39.0741 12.8047C39.104 12.6653 39.1094 12.5036 39.0897 12.3331C38.7457 9.37908 36.1744 9.41511 33.8114 10.2347C31.1858 11.1593 28.4244 11.6727 25.5273 11.7747C25.4708 11.7774 25.4144 11.7678 25.3616 11.7466C25.3089 11.7254 25.261 11.693 25.2209 11.6515C25.1809 11.61 25.1497 11.5603 25.1291 11.5055C25.1086 11.4507 25.0993 11.3921 25.1017 11.3334C25.2285 9.05787 25.6299 6.83634 26.3059 4.66884C26.8129 3.03871 26.9125 0.120682 24.1873 1.25547C23.9296 1.3606 23.7057 1.56741 23.5536 1.84087C22.1291 4.36862 21.2056 7.04347 20.7831 9.86542C19.8597 16.1067 18.2753 21.8437 17.1979 28.1931C17.0289 29.1898 16.6215 30.0784 15.9756 30.8589C13.7846 33.5158 12.9155 25.185 12.7072 24.2484C12.663 24.0503 12.5992 23.8722 12.5216 23.7305C12.4441 23.5887 12.3553 23.4881 12.2636 23.4378C11.5393 23.0476 10.7969 23.0085 10.0364 23.3207C9.9611 23.354 9.89899 23.4444 9.85971 23.5779C9.82042 23.7115 9.80616 23.8806 9.81913 24.0593C10.1541 28.4183 10.7879 38.2801 13.8571 41.5133C13.9511 41.6122 14.0224 41.7325 14.0662 41.8662C14.1099 41.9998 14.1251 42.1437 14.1106 42.2879L12.3632 59.6249C12.3349 59.9082 12.2198 60.1738 12.0353 60.3818C11.8507 60.5897 11.6068 60.7286 11.3401 60.7776Z" stroke="#89878E" stroke-width="2"/>
<path d="M11.3401 60.7776C11.6068 60.7286 11.8507 60.5897 12.0353 60.3818C12.2198 60.1738 12.3349 59.9082 12.3632 59.6249L14.1106 42.2879C14.1251 42.1437 14.1099 41.9998 14.0662 41.8662C14.0224 41.7325 13.9511 41.6122 13.8571 41.5133C10.7879 38.2801 10.1541 28.4183 9.81913 24.0593C9.80616 23.8806 9.82042 23.7115 9.8597 23.5779C9.89899 23.4444 9.9611 23.354 10.0364 23.3207C10.7969 23.0085 11.5393 23.0476 12.2636 23.4378C12.3553 23.4881 12.4441 23.5887 12.5216 23.7305C12.5992 23.8722 12.663 24.0503 12.7072 24.2484C12.9155 25.185 13.7846 33.5158 15.9756 30.8589C16.6215 30.0784 17.0289 29.1898 17.1979 28.1931C18.2753 21.8437 19.8597 16.1067 20.7831 9.86542C21.2056 7.04347 22.1291 4.36862 23.5536 1.84087C23.7057 1.56741 23.9296 1.3606 24.1873 1.25547C26.9125 0.120682 26.8129 3.03871 26.3059 4.66884C25.6299 6.83634 25.2285 9.05787 25.1017 11.3334C25.0993 11.3921 25.1086 11.4507 25.1291 11.5055C25.1497 11.5603 25.1809 11.61 25.2209 11.6515C25.261 11.693 25.3089 11.7254 25.3616 11.7466C25.4144 11.7678 25.4708 11.7774 25.5273 11.7747C28.4244 11.6727 31.1858 11.1593 33.8114 10.2347C36.1744 9.41511 38.7457 9.37908 39.0897 12.3331C39.1094 12.5036 39.104 12.6653 39.0741 12.8047C39.0442 12.9441 38.9906 13.0572 38.9177 13.1347C37.4389 14.7678 35.5889 15.6354 33.3678 15.7375C32.9754 15.7555 32.6917 15.8186 32.5167 15.9266C31.6174 16.473 30.706 16.9954 29.7825 17.4937C27.9536 18.4844 25.1651 18.6555 23.6803 20.4928C20.8918 23.9422 20.4391 30.859 19.2802 34.8307C18.6706 36.9141 19.4462 37.6797 21.607 37.1273L32.6616 34.3173C34.1766 33.9331 35.1151 34.5095 35.4773 36.0465C35.8153 37.4695 35.1604 38.3731 33.5126 38.7574C29.6497 39.67 25.3613 41.06 20.6473 42.9273C16.8991 44.4133 17.1979 46.5118 16.8901 50.5106C16.377 57.0671 16.2623 63.6236 16.546 70.1802C16.5479 70.2345 16.5622 70.2879 16.5877 70.3358C16.6132 70.3837 16.6492 70.4248 16.6925 70.4556C16.7359 70.4864 16.7855 70.5061 16.8372 70.513C16.8889 70.5199 16.9411 70.5139 16.9896 70.4954C21.4441 68.9193 26.1882 64.2541 29.9455 61.228C30.2013 61.0216 30.5191 60.9033 30.8529 60.8904C31.1866 60.8774 31.5189 60.9705 31.8015 61.1559C32.9905 61.9425 33.4855 63.0292 33.2863 64.4162C33.2336 64.7774 33.1019 65.0777 32.9151 65.2628C28.0744 69.952 22.6784 73.9057 16.7271 77.124C16.5903 77.1955 16.4772 77.3026 16.4017 77.4322C16.3261 77.5617 16.2913 77.7081 16.3016 77.8535L17.4333 91.3988C17.56 92.8879 18.3356 93.3352 19.7601 92.7408C25.7898 90.219 31.6868 87.4271 37.451 84.365C38.6702 83.7165 39.4186 83.8546 39.6963 84.7793C40.1007 86.0942 40.0796 87.343 39.6329 88.5258C39.6014 88.6093 39.5043 88.7098 39.3525 88.8164C39.2006 88.9229 39 89.0312 38.7728 89.1293C31.7532 92.2394 24.8995 95.6828 18.2119 99.4594C18.102 99.52 18.0097 99.6161 17.9445 99.7379C17.8792 99.8598 17.8434 100.003 17.8407 100.153C17.7019 106.583 17.1586 112.981 16.211 119.345C16.1944 119.45 16.2034 119.559 16.2373 119.66C16.2711 119.761 16.3286 119.851 16.4041 119.921C16.4797 119.992 16.5708 120.041 16.6686 120.063C16.7664 120.085 16.8677 120.08 16.9625 120.048C21.5255 118.523 26.1882 117.097 30.9504 115.77C35.6855 114.455 34.5176 121.345 30.5973 120.876C30.3016 120.84 29.9968 120.885 29.6829 121.011L16.374 126.442C15.2694 126.892 14.5542 127.706 14.2283 128.883C13.1962 132.629 12.9245 140.51 8.92281 141.924C8.62538 142.028 8.31234 142.025 8.0446 141.915C6.41494 141.257 6.19766 139.978 6.72277 138.357C8.04461 134.232 9.23064 130.069 10.2809 125.866C10.3155 125.729 10.3221 125.586 10.3003 125.445C10.2786 125.305 10.2289 125.169 10.1541 125.046C8.69647 122.524 -4.43137 101.297 3.56303 104.908C3.8431 105.036 4.06545 105.26 4.18774 105.539C5.75101 109.117 7.6402 112.476 9.85534 115.617C11.1953 117.514 12.0675 117.316 12.4719 115.022C13.3833 109.853 13.4889 104.689 12.7887 99.5315C12.753 99.292 12.5994 98.9928 12.3542 98.6849C8.449 93.8816 5.37377 88.6369 3.12846 82.951C2.07823 80.2761 4.05194 79.1143 5.71781 81.6991C6.92195 83.5544 12.997 93.7765 12.6801 88.2016C12.3904 82.978 11.2406 77.6553 11.4035 72.4767C11.476 70.2072 9.63805 69.1174 8.9047 67.4423C7.14829 63.4915 5.55484 59.0064 4.12436 53.9869C3.83464 52.9722 4.00364 52.0416 4.63136 51.195C6.84046 48.214 9.65616 61.0929 11.3401 60.7776Z" fill="#13162B"/>
</svg>
