<svg width="198" height="241" viewBox="0 0 198 241" fill="none" xmlns="http://www.w3.org/2000/svg">
<path d="M60.2354 156.694C45.9583 175.945 28.7795 185.02 5.85277 189.393C3.66069 189.817 -3.41641 191.817 2.94539 194.718C18.1281 201.653 47.6991 178.784 57.6378 168.061C59.0514 166.534 61.6068 162.624 65.3039 156.33" fill="#063144"/>
<path d="M60.2354 156.694C45.9583 175.945 28.7795 185.02 5.85277 189.393C3.66069 189.817 -3.41641 191.817 2.94539 194.718C18.1281 201.653 47.6991 178.784 57.6378 168.061C59.0514 166.534 61.6068 162.624 65.3039 156.33" stroke="#88868B" stroke-width="2"/>
<path d="M65.3069 156.331C67.1504 153.611 69.05 150.938 71.0059 148.314C82.1303 133.406 90.32 115.488 95.8606 97.7796C96.6252 95.3354 97.9806 88.1177 99.9267 76.1265C100.033 75.4554 100.28 75.3221 100.667 75.7265C100.77 75.8336 100.851 75.9731 100.904 76.1359C100.956 76.2987 100.979 76.4814 100.972 76.672C100.702 81.9453 101.445 87.092 100.228 92.1222C94.7109 115.014 85.2281 136.151 71.78 155.533C70.7334 157.032 71.1276 157.798 72.9624 157.83C94.2811 158.159 102.606 172.906 114.073 188.481C115.191 190.003 116.632 191.087 118.396 191.734C122.592 193.273 130.218 197.043 134.516 196.686C140.05 196.226 145.236 191.83 147.919 187.372C157.402 171.608 141.885 139.912 135.382 124.513C135.21 124.105 135.187 123.651 135.316 123.229C135.446 122.807 135.719 122.444 136.09 122.202C145.558 116.031 168.617 115.04 173.042 104.055C173.123 103.854 173.164 103.651 173.161 103.464C173.159 103.276 173.113 103.112 173.027 102.984C172.346 101.986 172.569 101.315 173.696 100.972C174.162 100.832 174.567 100.546 174.846 100.159C175.125 99.7717 175.262 99.3068 175.235 98.8386C174.397 83.5728 162.77 70.0225 147.325 68.2131C141.612 67.5419 134.656 69.0544 129.459 64.1842C129.19 63.9323 128.995 63.6115 128.895 63.2566C128.795 62.9017 128.795 62.5262 128.894 62.1708C130.497 56.4026 132.715 50.165 132.282 44.4602C131.346 32.1917 121.911 21.7726 109.095 21.5873C90.5654 21.3328 84.458 32.558 79.6607 48.7792C77.9152 54.6805 73.5768 56.3543 67.6559 55.5836C58.0407 54.3494 33.1953 51.4193 29.5631 67.0026C27.7662 74.7261 30.5087 82.0999 33.3321 91.5064C37.0907 104.011 32.1831 106.634 21.5531 112.102C12.7603 116.623 0.490159 129.767 11.4838 139.206C20.8368 147.237 31.9072 152.162 44.6948 153.981C51.4213 154.935 56.6025 155.84 60.2384 156.695" fill="#063144"/>
<path d="M65.3069 156.331C67.1504 153.611 69.05 150.938 71.0059 148.314C82.1303 133.406 90.32 115.488 95.8606 97.7796C96.6252 95.3354 97.9806 88.1177 99.9267 76.1265C100.033 75.4554 100.28 75.3221 100.667 75.7265C100.77 75.8336 100.851 75.9731 100.904 76.1359C100.956 76.2987 100.979 76.4814 100.972 76.672C100.702 81.9453 101.445 87.092 100.228 92.1222C94.7109 115.014 85.2281 136.151 71.78 155.533C70.7334 157.032 71.1276 157.798 72.9624 157.83C94.2811 158.159 102.606 172.906 114.073 188.481C115.191 190.003 116.632 191.087 118.396 191.734C122.592 193.273 130.218 197.043 134.516 196.686C140.05 196.226 145.236 191.83 147.919 187.372C157.402 171.608 141.885 139.912 135.382 124.513C135.21 124.105 135.187 123.651 135.316 123.229C135.446 122.807 135.719 122.444 136.09 122.202C145.558 116.031 168.617 115.04 173.042 104.055C173.123 103.854 173.164 103.651 173.161 103.464C173.159 103.276 173.113 103.112 173.027 102.984C172.346 101.986 172.569 101.315 173.696 100.972C174.162 100.832 174.567 100.546 174.846 100.159C175.125 99.7717 175.262 99.3068 175.235 98.8386C174.397 83.5728 162.77 70.0225 147.325 68.2131C141.612 67.5419 134.656 69.0544 129.459 64.1842C129.19 63.9323 128.995 63.6115 128.895 63.2566C128.795 62.9017 128.795 62.5262 128.894 62.1708C130.497 56.4026 132.715 50.165 132.282 44.4602C131.346 32.1917 121.911 21.7726 109.095 21.5873C90.5654 21.3328 84.458 32.558 79.6607 48.7792C77.9152 54.6805 73.5768 56.3543 67.6559 55.5836C58.0407 54.3494 33.1953 51.4193 29.5631 67.0026C27.7662 74.7261 30.5087 82.0999 33.3321 91.5064C37.0907 104.011 32.1831 106.634 21.5531 112.102C12.7603 116.623 0.49016 129.767 11.4838 139.206C20.8368 147.237 31.9072 152.162 44.6948 153.981C51.4213 154.935 56.6025 155.84 60.2384 156.695" stroke="#9A9FA1" stroke-width="2"/>
<path d="M65.3049 156.33L60.2364 156.694L65.3049 156.33Z" fill="#063144"/>
<path d="M65.3049 156.33L60.2364 156.694" stroke="#242D3C" stroke-width="2"/>
<path d="M148.47 82.619C148.553 82.5611 148.618 82.4783 148.66 82.3754C148.703 82.2725 148.722 82.1515 148.717 82.0194C148.712 81.8872 148.682 81.7465 148.63 81.6052C148.579 81.4639 148.505 81.3248 148.415 81.1959C148.232 80.9355 147.989 80.7323 147.741 80.631C147.493 80.5296 147.258 80.5384 147.09 80.6555C147.007 80.7134 146.942 80.7962 146.9 80.8991C146.857 81.002 146.838 81.123 146.843 81.2552C146.848 81.3873 146.878 81.528 146.93 81.6693C146.981 81.8106 147.055 81.9498 147.145 82.0787C147.328 82.3391 147.571 82.5423 147.819 82.6436C148.068 82.7449 148.302 82.7361 148.47 82.619Z" fill="#063144" stroke="#6B8C8D" stroke-width="2"/>
<path d="M65.3069 156.331L60.2384 156.695C56.6025 155.84 51.4213 154.935 44.6948 153.981C31.9072 152.162 20.8368 147.237 11.4838 139.206C0.490159 129.767 12.7603 116.623 21.5531 112.102C32.1831 106.634 37.0907 104.011 33.3321 91.5064C30.5087 82.0999 27.7662 74.7261 29.5631 67.0026C33.1953 51.4193 58.0407 54.3494 67.6559 55.5836C73.5768 56.3543 77.9152 54.6805 79.6607 48.7792C84.458 32.558 90.5654 21.3328 109.095 21.5873C121.911 21.7726 131.346 32.1917 132.282 44.4602C132.715 50.165 130.497 56.4026 128.894 62.1708C128.795 62.5262 128.795 62.9017 128.895 63.2566C128.995 63.6115 129.19 63.9323 129.459 64.1842C134.656 69.0544 141.612 67.5419 147.325 68.2131C162.77 70.0225 174.397 83.5728 175.235 98.8386C175.262 99.3068 175.125 99.7717 174.846 100.159C174.567 100.546 174.162 100.832 173.696 100.972C172.569 101.315 172.346 101.986 173.027 102.984C173.113 103.112 173.159 103.276 173.161 103.464C173.164 103.651 173.123 103.854 173.042 104.055C168.617 115.04 145.558 116.031 136.09 122.202C135.719 122.444 135.446 122.807 135.316 123.229C135.187 123.651 135.21 124.105 135.382 124.513C141.885 139.912 157.402 171.608 147.919 187.372C145.236 191.83 140.05 196.226 134.516 196.686C130.218 197.043 122.592 193.273 118.396 191.734C116.632 191.087 115.191 190.003 114.073 188.481C102.606 172.906 94.2811 158.159 72.9624 157.83C71.1276 157.798 70.7334 157.032 71.78 155.533C85.2281 136.151 94.7109 115.014 100.228 92.1222C101.445 87.092 100.702 81.9453 100.972 76.672C100.979 76.4814 100.956 76.2987 100.904 76.1359C100.851 75.9731 100.77 75.8336 100.667 75.7265C100.28 75.3221 100.033 75.4554 99.9267 76.1265C97.9806 88.1177 96.6252 95.3354 95.8606 97.7796C90.32 115.488 82.1303 133.406 71.0059 148.314C69.05 150.938 67.1504 153.611 65.3069 156.331ZM148.469 82.6183C148.552 82.5603 148.617 82.4775 148.659 82.3746C148.702 82.2717 148.721 82.1508 148.716 82.0186C148.711 81.8865 148.681 81.7457 148.629 81.6044C148.578 81.4631 148.504 81.324 148.414 81.1951C148.231 80.9347 147.988 80.7315 147.74 80.6302C147.492 80.5289 147.257 80.5377 147.089 80.6547C147.006 80.7127 146.941 80.7955 146.899 80.8984C146.856 81.0013 146.837 81.1223 146.842 81.2544C146.847 81.3866 146.877 81.5273 146.929 81.6686C146.98 81.8099 147.054 81.949 147.144 82.0779C147.327 82.3383 147.57 82.5415 147.818 82.6428C148.067 82.7442 148.301 82.7353 148.469 82.6183Z" fill="#063144"/>
<path d="M65.3039 156.33C61.6068 162.624 59.0514 166.534 57.6378 168.061C47.6991 178.784 18.1281 201.653 2.94539 194.718C-3.41641 191.817 3.66069 189.817 5.85277 189.393C28.7795 185.02 45.9583 175.945 60.2354 156.694L65.3039 156.33Z" fill="#063144"/>
<path d="M151.38 83.6869C151.212 83.8041 150.979 83.8134 150.732 83.7125C150.485 83.6116 150.244 83.409 150.062 83.1491C149.972 83.0204 149.899 82.8815 149.848 82.7404C149.797 82.5992 149.768 82.4587 149.763 82.3266C149.758 82.1945 149.777 82.0736 149.82 81.9707C149.862 81.8678 149.926 81.7849 150.01 81.7268C150.177 81.6096 150.41 81.6004 150.657 81.7013C150.905 81.8021 151.145 82.0048 151.327 82.2647C151.417 82.3934 151.49 82.5322 151.541 82.6733C151.593 82.8145 151.621 82.9551 151.626 83.0872C151.631 83.2192 151.612 83.3401 151.57 83.443C151.527 83.5459 151.463 83.6288 151.38 83.6869Z" fill="#063144"/>
</svg>
