<svg width="61" height="139" viewBox="0 0 61 139" fill="none" xmlns="http://www.w3.org/2000/svg">
<path d="M30.783 19.4984L30.6609 22.6198C30.6561 22.7433 30.6999 22.8575 30.7852 22.9439C30.8706 23.0303 30.9924 23.0838 31.1309 23.0958C35.3872 23.3987 38.0731 20.8629 41.3186 18.438C47.7243 13.6585 47.1918 21.0989 44.2689 24.3262C40.2051 28.806 36.6273 33.1336 31.7942 37.2005C27.258 41.0121 21.7396 48.4485 24.8036 53.3691C25.6936 54.7867 26.941 54.8849 28.5458 53.6639C30.7981 51.96 35.1694 48.7697 37.7172 49.336C39.1403 49.6528 39.4193 50.5127 38.5541 51.9158C35.1943 57.3873 30.8683 62.1226 25.576 66.1218C25.3755 66.2725 25.1809 66.5561 25.0323 66.9148C23.5825 70.4932 21.1151 78.4592 26.373 78.3039C26.6681 78.2964 26.9738 78.1759 27.2273 77.9671C30.2841 75.4711 32.9655 71.4609 36.7977 69.8906C36.9467 69.8289 37.0998 69.796 37.2467 69.7943C37.3935 69.7926 37.5305 69.822 37.6482 69.8806C42.6698 72.4554 33.4954 82.2447 30.9204 85.7681C27.6753 90.1993 29.1363 97.4543 30.8657 101.37C30.9287 101.512 31.0319 101.63 31.1651 101.712C31.2983 101.793 31.4571 101.836 31.626 101.836C31.7948 101.836 31.9681 101.793 32.1288 101.711C32.2896 101.629 32.4324 101.512 32.5433 101.37C34.5137 98.855 35.8327 96.1288 36.5005 93.1909C36.5269 93.0714 36.598 92.937 36.7084 92.7975C36.8187 92.658 36.9656 92.5171 37.138 92.3853C38.3928 91.4238 39.6481 91.163 40.9039 91.6032C41.8994 91.9485 42.3878 92.5783 42.3691 93.4928C42.2525 98.0266 41.1539 102.258 39.0734 106.187C34.7966 114.262 41.2768 116.412 46.1536 119.538C46.2284 119.585 46.3165 119.615 46.4109 119.623C46.5054 119.631 46.6039 119.619 46.6989 119.587C46.7938 119.554 46.8827 119.503 46.9589 119.436C47.0351 119.369 47.0965 119.289 47.1385 119.201C49.6696 113.966 51.5622 108.635 52.8161 103.208C53.1686 101.688 53.8634 100.957 54.9008 101.016L57.9945 101.187C58.1339 101.195 58.2627 101.247 58.3664 101.337C58.4702 101.426 58.545 101.55 58.5823 101.695C60.0263 107.066 61.4834 114.647 59.4955 120.589C58.2003 124.45 59.0993 127.864 55.1459 130.882C52.6404 132.784 49.3983 132.196 47.0295 132.874C39.2446 135.1 31.4391 137.058 23.6131 138.75C21.0655 139.305 18.3648 139.059 19.2534 135.889C19.662 134.416 20.6393 133.449 22.1853 132.988C28.1128 131.214 34.0605 129.753 40.0285 128.607C40.1609 128.581 40.2916 128.532 40.4127 128.46C40.5338 128.388 40.6429 128.296 40.7334 128.19C40.8239 128.083 40.8941 127.963 40.9397 127.838C40.9852 127.713 41.0052 127.586 40.9984 127.462C40.8058 123.327 34.9495 120.987 31.9697 119.201C31.3413 118.819 30.5419 118.651 29.6733 118.719C21.7753 119.333 14.0184 119.224 6.40238 118.39C6.20646 118.368 6.03086 118.331 5.89594 118.282C5.761 118.232 5.67219 118.174 5.63981 118.112C4.92705 116.678 4.90957 115.056 5.58728 113.246C5.71748 112.898 6.0237 112.574 6.45717 112.324C6.89065 112.075 7.42639 111.915 7.979 111.87C13.0772 111.447 18.1868 110.669 23.3079 109.537C23.429 109.51 23.5473 109.458 23.6554 109.384C23.7635 109.31 23.8591 109.216 23.9361 109.108C24.0132 109 24.0701 108.88 24.1033 108.756C24.1365 108.632 24.1453 108.506 24.1291 108.386C23.5623 104.16 22.0828 98.8727 18.2798 96.7508C13.4226 94.0335 8.7488 91.086 4.25837 87.9084C1.85181 86.2079 0.624277 83.8277 0.575759 80.7677C0.504747 76.9854 3.05575 76.2761 5.93265 77.3051C8.73279 78.3146 11.5478 79.2579 14.3777 80.135C15.8965 80.6102 16.9812 80.037 17.6316 78.4153C18.4829 76.29 17.869 73.8071 15.9915 72.57C11.3952 69.5587 7.25236 66.066 3.563 62.0919C2.33838 60.763 2.19345 58.9548 3.12813 56.6674C3.89231 54.8153 5.06371 54.3 6.64235 55.1216C8.67413 56.167 16.6134 61.226 17.2869 55.3308C17.795 50.9565 18.1043 46.6093 18.2147 42.2891C18.2169 42.0891 18.2069 41.9061 18.1861 41.765C18.1652 41.6239 18.1347 41.5315 18.0984 41.5002C16.7189 40.4571 16.168 39.03 16.4457 37.219C16.466 37.0818 16.44 36.9442 16.3705 36.8208C16.301 36.6975 16.1906 36.5931 16.0512 36.5189C14.4444 35.6631 13.4935 34.3927 13.1987 32.708C12.1697 28.5207 10.1451 24.9305 7.12485 21.9374C5.91914 20.7367 6.24398 20.1887 8.09935 20.2933C12.7829 20.5464 20.0237 21.9299 21.577 14.9864C22.3448 11.5275 20.2083 7.38565 20.5016 3.30332C20.6147 1.6926 21.3331 1.25915 22.6568 2.00295C23.6532 2.57044 24.5525 3.1461 25.3543 3.73001C30.9551 7.84516 33.9092 -0.00377632 39.0641 1.05859C40.3073 1.31494 40.5287 2.02085 39.7284 3.17625C35.5091 9.28372 29.2743 11.0959 28.8826 19.1971C28.8749 19.3537 28.8992 19.4998 28.9537 19.6236C29.0082 19.7474 29.0914 19.8455 29.1964 19.9097C29.6799 20.202 30.2088 20.0648 30.783 19.4984Z" fill="#FFB94F"/>
</svg>
