<svg width="57" height="133" viewBox="0 0 57 133" fill="none" xmlns="http://www.w3.org/2000/svg">
<rect width="57" height="133" fill="#F5F5F5"/>
<path d="M-1209 -4319C-1209 -4320.1 -1208.1 -4321 -1207 -4321H8839C8840.1 -4321 8841 -4320.1 8841 -4319V1693C8841 1694.1 8840.1 1695 8839 1695H-1207C-1208.1 1695 -1209 1694.1 -1209 1693V-4319Z" fill="#D9D9D9" fill-opacity="0.65"/>
<g clip-path="url(#clip0_2_54)" filter="url(#filter0_d_2_54)">
<rect width="1442" height="5396" transform="translate(-808 -3838)" fill="#FBEFE2"/>
<rect x="-650" y="-524" width="1127" height="691" rx="20" fill="#88B1E1" fill-opacity="0.3"/>
<path d="M29.9728 18.9297L30.0107 21.904C30.0122 22.0217 29.9694 22.1373 29.8893 22.2323C29.8092 22.3272 29.6965 22.3959 29.5694 22.4271C25.668 23.3235 23.2705 21.2755 20.3583 19.4136C14.6103 15.7449 14.9218 22.8002 17.5198 25.4771C21.1322 29.192 24.3035 32.8303 28.6295 36.04C32.6898 39.0471 37.5632 45.3886 34.6436 50.541C33.7959 52.0264 32.6522 52.2982 31.2127 51.3564C29.1923 50.044 25.2682 47.6088 22.9236 48.5144C21.6141 49.0206 21.3386 49.8845 22.097 51.1061C25.0418 55.8717 28.8881 59.7942 33.6357 62.8735C33.8157 62.9894 33.987 63.2336 34.1145 63.5561C35.3565 66.7793 37.4259 74.0628 32.6189 74.6627C32.349 74.6975 32.0722 74.6255 31.8451 74.4615C29.1073 72.5045 26.7487 69.0429 23.2795 68.0836C23.1447 68.0456 23.0053 68.0359 22.871 68.0552C22.7367 68.0744 22.6106 68.1222 22.5016 68.1951C17.8463 71.3778 26.0092 79.4539 28.2819 82.4641C31.1464 86.2491 29.6383 93.4105 27.9636 97.4101C27.9026 97.5552 27.8054 97.6825 27.6815 97.7796C27.5577 97.8767 27.4115 97.9404 27.2569 97.9644C27.1024 97.9883 26.9449 97.9718 26.7998 97.9164C26.6546 97.861 26.5268 97.7686 26.4286 97.6482C24.6852 95.5187 23.5428 93.0935 23.0011 90.3729C22.9798 90.2622 22.918 90.1434 22.8203 90.0255C22.7226 89.9075 22.5916 89.7934 22.4369 89.6916C21.3115 88.9487 20.1692 88.8775 19.0098 89.4782C18.0908 89.9509 17.629 90.6241 17.6246 91.4979C17.6242 95.8266 18.5294 99.7256 20.3402 103.195C24.0625 110.325 18.0827 113.309 13.5468 116.999C13.4773 117.055 13.396 117.096 13.3094 117.117C13.2227 117.139 13.1329 117.141 13.0468 117.123C12.9607 117.106 12.8806 117.069 12.8124 117.016C12.7443 116.963 12.69 116.895 12.6537 116.817C10.4614 112.16 8.85574 107.32 7.83662 102.297C7.55007 100.89 6.93155 100.289 5.98104 100.493L3.14642 101.097C3.01866 101.125 2.89965 101.193 2.80258 101.293C2.70551 101.394 2.63419 101.524 2.59657 101.668C1.14861 107.021 -0.363654 114.495 1.31487 119.907C2.4087 123.423 1.50561 126.822 5.0514 129.152C7.29892 130.618 10.2792 129.593 12.4304 129.906C19.5007 130.93 26.5961 131.696 33.7165 132.203C36.0344 132.372 38.5111 131.752 37.773 128.84C37.4339 127.486 36.5625 126.699 35.1589 126.478C29.7775 125.621 24.3701 125.068 18.9369 124.819C18.8163 124.813 18.6979 124.784 18.5888 124.733C18.4796 124.681 18.382 124.609 18.3017 124.519C18.2214 124.43 18.16 124.325 18.1213 124.212C18.0826 124.099 18.0673 123.979 18.0764 123.86C18.3503 119.869 23.7638 116.792 26.5323 114.657C27.1163 114.201 27.8517 113.926 28.6448 113.868C35.8565 113.332 42.9563 112.122 49.9443 110.239C50.124 110.19 50.2856 110.129 50.4102 110.063C50.5348 109.996 50.6174 109.927 50.6485 109.863C51.3345 108.388 51.3888 106.831 50.8115 105.193C50.7006 104.878 50.4281 104.61 50.0374 104.433C49.6467 104.256 49.1603 104.179 48.6557 104.214C44.0011 104.535 39.3445 104.517 34.6857 104.161C34.5755 104.152 34.4685 104.119 34.3713 104.064C34.2742 104.008 34.189 103.932 34.121 103.84C34.053 103.747 34.0038 103.64 33.9763 103.526C33.9489 103.412 33.9439 103.292 33.9615 103.175C34.5799 99.0435 36.0584 93.7655 39.5881 91.1903C44.0964 87.8943 48.4422 84.4039 52.6258 80.719C54.8678 78.7465 56.0472 76.2905 56.1638 73.3508C56.3181 69.7156 54.0008 69.399 51.3443 70.7949C48.7585 72.1612 46.1606 73.466 43.5507 74.7096C42.1498 75.3814 41.171 74.9864 40.6142 73.5247C39.8854 71.609 40.5058 69.142 42.2528 67.6889C46.5293 64.1483 50.4023 60.2109 53.8717 55.8767C55.0236 54.4287 55.1989 52.675 54.3977 50.6158C53.7423 48.9495 52.6827 48.6224 51.2189 49.6346C49.3352 50.9259 41.9517 56.905 41.4747 51.3509C41.1131 47.2307 40.9328 43.1082 40.9338 38.9834C40.9366 38.792 40.9501 38.6152 40.9724 38.477C40.9948 38.3388 41.025 38.2459 41.0588 38.2108C42.3457 37.0146 42.8834 35.5684 42.6721 33.8722C42.6568 33.7436 42.6838 33.6079 42.7503 33.4798C42.8168 33.3517 42.9203 33.236 43.0496 33.145C44.54 32.0959 45.44 30.743 45.7495 29.0863C46.7899 24.9266 48.7271 21.1974 51.5611 17.8986C52.6926 16.5762 52.4084 16.0972 50.7083 16.4616C46.4171 17.3711 39.7595 19.7281 38.5023 13.2945C37.8815 10.0887 39.9341 5.81478 39.7622 1.94392C39.6968 0.416249 39.0497 0.103114 37.8209 1.00449C36.8959 1.69027 36.0595 2.37003 35.3121 3.04385C30.0905 7.78544 27.573 0.683425 22.8314 2.43564C21.6879 2.85836 21.4687 3.56644 22.1736 4.55987C25.8898 9.81266 31.5516 10.6617 31.7186 18.3704C31.722 18.5194 31.6963 18.6629 31.6435 18.7893C31.5907 18.9157 31.5123 19.0215 31.4147 19.098C30.9654 19.447 30.4848 19.3909 29.9728 18.9297Z" fill="#FFB94F"/>
</g>
<defs>
<filter id="filter0_d_2_54" x="-812" y="-3838" width="1450" height="5404" filterUnits="userSpaceOnUse" color-interpolation-filters="sRGB">
<feFlood flood-opacity="0" result="BackgroundImageFix"/>
<feColorMatrix in="SourceAlpha" type="matrix" values="0 0 0 0 0 0 0 0 0 0 0 0 0 0 0 0 0 0 127 0" result="hardAlpha"/>
<feOffset dy="4"/>
<feGaussianBlur stdDeviation="2"/>
<feComposite in2="hardAlpha" operator="out"/>
<feColorMatrix type="matrix" values="0 0 0 0 0 0 0 0 0 0 0 0 0 0 0 0 0 0 0.25 0"/>
<feBlend mode="normal" in2="BackgroundImageFix" result="effect1_dropShadow_2_54"/>
<feBlend mode="normal" in="SourceGraphic" in2="effect1_dropShadow_2_54" result="shape"/>
</filter>
<clipPath id="clip0_2_54">
<rect width="1442" height="5396" fill="white" transform="translate(-808 -3838)"/>
</clipPath>
</defs>
</svg>
