<svg width="128" height="176" viewBox="0 0 128 176" fill="none" xmlns="http://www.w3.org/2000/svg">
<path d="M100.23 9.16871C104.889 5.35398 113.072 -1.30956 118.802 0.212583C129.263 2.98042 127.076 17.5068 127.432 25.7869C128.338 47.0119 124.451 68.1685 109.74 84.175C108.682 85.3266 108.24 86.677 108.415 88.2263C109.122 94.4788 109.867 100.541 109.107 106.721C105.961 132.317 95.3326 153.709 73.6089 168.137C65.9164 173.239 53.4179 174.538 44.2613 175.28C24.3754 176.894 5.71548 163.515 0.899944 144.113C-1.25371 135.408 1.61773 123.833 4.14389 115.222C13.7193 82.5323 33.3999 57.2925 59.8717 36.6467C71.7732 27.3698 89.3316 18.0915 100.23 9.16871ZM56.8751 112.559C59.2731 101.753 61.3013 90.7085 66.545 80.7208C66.7118 80.4009 66.9471 80.1213 67.2343 79.9019C67.5216 79.6824 67.8537 79.5284 68.2075 79.4506C78.2631 77.2725 90.4287 72.257 98.037 65.1831C100.506 62.8879 98.3628 60.703 95.5006 62.3966C88.7001 66.4104 81.5103 69.5438 73.9311 71.7968C72.635 72.1808 72.3749 71.8635 73.1509 70.8449C80.7952 60.8013 88.4885 50.7976 96.2306 40.8336C96.8893 39.9938 102.075 32.5771 98.8262 32.647C98.6659 32.6513 98.5022 32.6927 98.3445 32.7687C98.1869 32.8447 98.0385 32.9539 97.9081 33.0898C96.8718 34.1429 95.6205 35.6691 94.1544 37.6681C85.7535 49.1467 77.3185 60.6094 68.8493 72.0563C67.6494 73.6805 66.6096 73.5832 65.73 71.7642C62.7041 65.5105 66.22 57.2405 67.9695 50.8024C68.196 49.9503 67.9163 49.3181 67.1304 48.9058C67.0025 48.8357 66.8496 48.8206 66.7017 48.8635C66.5537 48.9063 66.4214 49.004 66.3307 49.1374C59.3625 59.3957 57.0594 66.2536 63.4718 77.7144C63.5515 77.8604 63.5945 78.0232 63.5971 78.1885C63.5996 78.3539 63.5617 78.5169 63.4864 78.6634C58.3012 88.9499 54.9896 99.8183 53.5514 111.268C53.3986 112.465 52.8935 112.627 52.0362 111.755C47.5418 107.217 44.3811 101.887 42.5541 95.7644C42.4961 95.5707 42.4083 95.3946 42.2961 95.2472C42.184 95.0998 42.05 94.9841 41.9024 94.9074C38.9314 93.3744 39.0884 96.2707 39.4211 98.0389C40.9848 106.314 44.9764 112.923 51.3958 117.865C51.7212 118.117 51.9674 118.456 52.1052 118.841C52.2429 119.225 52.2665 119.64 52.1731 120.035L46.9456 142.128C46.6136 143.553 45.8029 143.935 44.5133 143.275C35.3326 138.561 31.5591 130.609 30.0009 120.597C29.9616 120.351 29.8974 120.127 29.8161 119.953C29.7348 119.779 29.6398 119.662 29.5424 119.616C28.8685 119.285 28.1816 119.294 27.4817 119.642C27.3388 119.713 27.2109 119.826 27.1078 119.973C27.0048 120.12 26.9293 120.297 26.8873 120.491C24.3537 132.3 33.7701 144.243 43.8758 148.842C44.0751 148.933 44.2441 149.063 44.3569 149.211C44.4697 149.359 44.5199 149.518 44.5 149.662L43.5666 156.056C43.5408 156.235 43.559 156.414 43.6196 156.578C43.6801 156.741 43.7809 156.883 43.9119 156.988C45.0825 157.914 46.2256 157.903 47.3413 156.955C47.4308 156.881 47.5079 156.766 47.567 156.621C47.6261 156.475 47.6658 156.302 47.6831 156.113L48.2321 150.479C48.267 150.156 48.4127 149.85 48.6488 149.604C48.8849 149.357 49.1995 149.182 49.5487 149.104C57.3819 147.385 70.9772 143.144 76.6215 137.307C76.7403 137.185 76.826 137.036 76.8706 136.875C76.9152 136.714 76.9171 136.546 76.8763 136.387C76.4382 134.741 75.3721 134.324 73.678 135.136C66.3337 138.628 58.7732 141.602 50.9965 144.058C50.3919 144.253 50.1596 144.045 50.2998 143.434L55.8305 120.014C55.8904 119.768 56.0181 119.531 56.204 119.321C56.39 119.111 56.6295 118.933 56.9049 118.8C64.093 115.329 71.1561 111.665 78.094 107.809C80.6187 106.404 82.4259 101.52 77.2202 103.753C70.5213 106.621 64.0162 109.76 57.705 113.17C56.9763 113.564 56.6997 113.361 56.8751 112.559Z" fill="#88B1E1"/>
</svg>
