<svg width="139" height="200" viewBox="0 0 139 200" fill="none" xmlns="http://www.w3.org/2000/svg">
<g id="doodle_254">
<path id="Vector" d="M105.23 23.1698C94.3316 32.0926 76.7732 41.3709 64.8717 50.6478C38.3999 71.2936 18.7193 96.5334 9.14389 129.224C6.61773 137.834 3.74629 149.409 5.89994 158.114C10.7155 177.516 29.3754 190.895 49.2613 189.281C58.4179 188.539 70.9164 187.24 78.6089 182.138C100.333 167.71 110.961 146.319 114.107 120.722C114.867 114.542 114.122 108.48 113.415 102.227C113.24 100.678 113.682 99.3277 114.74 98.1761C129.451 82.1696 133.338 61.013 132.432 39.788C132.076 31.5079 134.263 16.9815 123.802 14.2137C118.072 12.6915 109.889 19.3551 105.23 23.1698Z" stroke="#88B1E1" stroke-width="2"/>
<path id="Vector_2" d="M61.8774 126.56C64.2755 115.754 66.3037 104.709 71.5474 94.7214C71.7141 94.4015 71.9494 94.122 72.2367 93.9025C72.5239 93.6831 72.8561 93.529 73.2098 93.4512C83.2654 91.2732 95.4311 86.2577 103.039 79.1838C105.508 76.8885 103.365 74.7037 100.503 76.3973C93.7025 80.411 86.5126 83.5445 78.9334 85.7975C77.6374 86.1815 77.3773 85.8641 78.1533 84.8455C85.7976 74.802 93.4908 64.7982 101.233 54.8342C101.892 53.9944 107.077 46.5777 103.829 46.6476C103.668 46.6519 103.505 46.6933 103.347 46.7694C103.189 46.8454 103.041 46.9545 102.91 47.0904C101.874 48.1436 100.623 49.6697 99.1567 51.6687C90.7559 63.1473 82.3209 74.61 73.8517 86.0569C72.6517 87.6812 71.6119 87.5838 70.7323 85.7648C67.7065 79.5111 71.2223 71.2412 72.9719 64.8031C73.1984 63.9509 72.9186 63.3187 72.1327 62.9065C72.0049 62.8364 71.852 62.8213 71.704 62.8641C71.5561 62.9069 71.4238 63.0046 71.333 63.138C64.3649 73.3964 62.0617 80.2543 68.4741 91.715C68.5539 91.8611 68.5969 92.0238 68.5994 92.1892C68.602 92.3545 68.564 92.5175 68.4888 92.6641C63.3036 102.951 59.9919 113.819 58.5538 125.269C58.401 126.466 57.8959 126.628 57.0385 125.755C52.5441 121.217 49.3834 115.887 47.5565 109.765C47.4984 109.571 47.4106 109.395 47.2985 109.248C47.1864 109.1 47.0524 108.985 46.9048 108.908C43.9337 107.375 44.0908 110.271 44.4235 112.04C45.9872 120.315 49.9788 126.923 56.3982 131.866C56.7236 132.118 56.9697 132.456 57.1075 132.841C57.2453 133.226 57.2689 133.641 57.1754 134.036L51.9479 156.129C51.616 157.553 50.8052 157.936 49.5157 157.276C40.335 152.562 36.5614 144.61 35.0033 134.598C34.9639 134.351 34.8998 134.128 34.8184 133.954C34.7371 133.78 34.6421 133.663 34.5447 133.617C33.8709 133.286 33.184 133.295 32.4841 133.642C32.3411 133.713 32.2132 133.827 32.1102 133.974C32.0071 134.121 31.9317 134.298 31.8896 134.491C29.356 146.301 38.7725 158.243 48.8781 162.842C49.0775 162.934 49.2465 163.064 49.3592 163.212C49.472 163.36 49.5223 163.518 49.5024 163.663L48.5689 170.057C48.5431 170.235 48.5614 170.415 48.6219 170.578C48.6825 170.742 48.7832 170.883 48.9143 170.989C50.0848 171.914 51.2279 171.903 52.3436 170.956C52.4332 170.881 52.5103 170.767 52.5693 170.621C52.6284 170.476 52.6681 170.302 52.6855 170.113L53.2344 164.48C53.2693 164.157 53.415 163.851 53.6511 163.605C53.8872 163.358 54.2019 163.183 54.5511 163.105C62.3842 161.386 75.9796 157.145 81.6239 151.308C81.7426 151.186 81.8284 151.037 81.8729 150.875C81.9175 150.714 81.9195 150.546 81.8786 150.387C81.4405 148.742 80.3744 148.325 78.6803 149.137C71.336 152.629 63.7756 155.603 55.9989 158.059C55.3942 158.254 55.162 158.046 55.3022 157.435L60.8329 134.015C60.8928 133.769 61.0204 133.532 61.2064 133.322C61.3924 133.112 61.6319 132.933 61.9073 132.8C69.0954 129.329 76.1584 125.666 83.0964 121.81C85.6211 120.405 87.4282 115.52 82.2225 117.754C75.5237 120.621 69.0186 123.76 62.7073 127.171C61.9787 127.565 61.702 127.361 61.8774 126.56Z" stroke="#8D5353" stroke-width="2"/>
<path id="Vector_3" d="M105.23 23.1687C109.889 19.354 118.072 12.6904 123.802 14.2126C134.263 16.9804 132.076 31.5068 132.432 39.7869C133.338 61.0119 129.451 82.1685 114.74 98.175C113.682 99.3266 113.24 100.677 113.415 102.226C114.122 108.479 114.867 114.541 114.107 120.721C110.961 146.317 100.333 167.709 78.6089 182.137C70.9164 187.239 58.4179 188.538 49.2613 189.28C29.3754 190.894 10.7155 177.515 5.89994 158.113C3.74629 149.408 6.61773 137.833 9.14389 129.222C18.7193 96.5323 38.3999 71.2925 64.8717 50.6467C76.7732 41.3698 94.3316 32.0915 105.23 23.1687ZM61.8751 126.559C64.2731 115.753 66.3013 104.708 71.545 94.7208C71.7118 94.4009 71.9471 94.1213 72.2343 93.9019C72.5216 93.6824 72.8537 93.5284 73.2075 93.4506C83.2631 91.2725 95.4287 86.257 103.037 79.1831C105.506 76.8879 103.363 74.703 100.501 76.3966C93.7001 80.4104 86.5103 83.5438 78.9311 85.7968C77.635 86.1808 77.3749 85.8635 78.1509 84.8449C85.7952 74.8013 93.4885 64.7976 101.231 54.8336C101.889 53.9938 107.075 46.5771 103.826 46.647C103.666 46.6513 103.502 46.6927 103.345 46.7687C103.187 46.8447 103.039 46.9539 102.908 47.0898C101.872 48.1429 100.621 49.6691 99.1544 51.6681C90.7535 63.1467 82.3185 74.6094 73.8493 86.0563C72.6494 87.6805 71.6096 87.5832 70.73 85.7642C67.7041 79.5105 71.22 71.2405 72.9695 64.8024C73.196 63.9503 72.9163 63.3181 72.1304 62.9058C72.0025 62.8357 71.8496 62.8206 71.7017 62.8635C71.5537 62.9063 71.4214 63.004 71.3307 63.1374C64.3625 73.3957 62.0594 80.2536 68.4718 91.7144C68.5515 91.8604 68.5945 92.0232 68.5971 92.1885C68.5996 92.3539 68.5617 92.5169 68.4864 92.6634C63.3012 102.95 59.9896 113.818 58.5514 125.268C58.3986 126.465 57.8935 126.627 57.0362 125.755C52.5418 121.217 49.3811 115.887 47.5541 109.764C47.4961 109.571 47.4083 109.395 47.2961 109.247C47.184 109.1 47.05 108.984 46.9024 108.907C43.9314 107.374 44.0884 110.271 44.4211 112.039C45.9848 120.314 49.9764 126.923 56.3958 131.865C56.7212 132.117 56.9674 132.456 57.1052 132.841C57.2429 133.225 57.2665 133.64 57.1731 134.035L51.9456 156.128C51.6136 157.553 50.8029 157.935 49.5133 157.275C40.3326 152.561 36.5591 144.609 35.0009 134.597C34.9616 134.351 34.8974 134.127 34.8161 133.953C34.7348 133.779 34.6398 133.662 34.5424 133.616C33.8685 133.285 33.1816 133.294 32.4817 133.642C32.3388 133.713 32.2109 133.826 32.1078 133.973C32.0048 134.12 31.9293 134.297 31.8873 134.491C29.3537 146.3 38.7701 158.243 48.8758 162.842C49.0751 162.933 49.2441 163.063 49.3569 163.211C49.4697 163.359 49.5199 163.518 49.5 163.662L48.5666 170.056C48.5408 170.235 48.559 170.414 48.6196 170.578C48.6801 170.741 48.7809 170.883 48.9119 170.988C50.0825 171.914 51.2256 171.903 52.3413 170.955C52.4308 170.881 52.5079 170.766 52.567 170.621C52.6261 170.475 52.6658 170.302 52.6831 170.113L53.2321 164.479C53.267 164.156 53.4127 163.85 53.6488 163.604C53.8849 163.357 54.1995 163.182 54.5487 163.104C62.3819 161.385 75.9772 157.144 81.6215 151.307C81.7403 151.185 81.826 151.036 81.8706 150.875C81.9152 150.714 81.9171 150.546 81.8763 150.387C81.4382 148.741 80.3721 148.324 78.678 149.136C71.3337 152.628 63.7732 155.602 55.9965 158.058C55.3919 158.253 55.1596 158.045 55.2998 157.434L60.8305 134.014C60.8904 133.768 61.0181 133.531 61.204 133.321C61.39 133.111 61.6295 132.933 61.9049 132.8C69.093 129.329 76.1561 125.665 83.094 121.809C85.6187 120.404 87.4259 115.52 82.2202 117.753C75.5213 120.621 69.0162 123.76 62.705 127.17C61.9763 127.564 61.6997 127.361 61.8751 126.559Z" fill="#88B1E1"/>
<path id="Vector_4" d="M61.9285 127.117C61.7534 127.919 62.0285 128.122 62.7537 127.727C69.0351 124.312 75.5091 121.169 82.1758 118.296C87.3565 116.06 85.5549 120.945 83.0421 122.352C76.1369 126.213 69.1073 129.881 61.9535 133.357C61.6794 133.49 61.441 133.668 61.2558 133.879C61.0707 134.089 60.9435 134.326 60.8837 134.572L55.3639 157.994C55.2239 158.605 55.4548 158.812 56.0565 158.617C63.7951 156.155 71.319 153.176 78.6283 149.679C80.3142 148.866 81.3746 149.282 81.8092 150.927C81.8497 151.086 81.8477 151.254 81.8032 151.415C81.7587 151.576 81.6733 151.725 81.5551 151.848C75.9353 157.688 62.4066 161.939 54.6124 163.663C54.2649 163.742 53.9517 163.917 53.7166 164.164C53.4816 164.411 53.3364 164.717 53.3014 165.039L52.7511 170.673C52.7337 170.862 52.6941 171.035 52.6352 171.181C52.5763 171.326 52.4995 171.441 52.4104 171.516C51.2997 172.464 50.1624 172.475 48.9986 171.551C48.8683 171.445 48.7681 171.304 48.708 171.141C48.6479 170.977 48.6299 170.798 48.6557 170.619L49.5891 164.225C49.6091 164.081 49.5592 163.922 49.4471 163.774C49.335 163.626 49.1669 163.497 48.9687 163.405C38.9184 158.815 29.5592 146.88 32.0886 135.07C32.1306 134.877 32.2058 134.7 32.3084 134.552C32.4111 134.405 32.5384 134.292 32.6807 134.221C33.3773 133.873 34.0606 133.864 34.7308 134.194C34.8276 134.239 34.922 134.356 35.0028 134.53C35.0836 134.704 35.1473 134.928 35.1862 135.174C36.7289 145.184 40.4771 153.132 49.6072 157.839C50.8896 158.498 51.6965 158.115 52.0278 156.69L57.245 134.596C57.3383 134.201 57.3151 133.786 57.1783 133.401C57.0416 133.017 56.7969 132.678 56.4734 132.426C50.0906 127.489 46.1245 120.884 44.575 112.611C44.2453 110.844 44.0913 107.948 47.0459 109.478C47.1927 109.555 47.3259 109.671 47.4373 109.818C47.5488 109.965 47.636 110.141 47.6936 110.335C49.5066 116.455 52.6471 121.782 57.115 126.316C57.9673 127.188 58.4699 127.026 58.6228 125.829C60.0622 114.379 63.365 103.509 68.5313 93.22C68.6063 93.0735 68.6442 92.9105 68.6418 92.7451C68.6393 92.5798 68.5967 92.4171 68.5174 92.2711C62.1465 80.8164 64.443 73.9576 71.3831 63.6951C71.4734 63.5617 71.6052 63.4639 71.7524 63.4209C71.8996 63.378 72.0517 63.393 72.1788 63.463C72.9604 63.8746 73.2382 64.5065 73.0122 65.3587C71.2669 71.7975 67.7629 80.0691 70.7685 86.3199C71.6422 88.138 72.6766 88.2346 73.8716 86.6096C82.3059 75.1576 90.7062 63.6898 99.0726 52.2062C100.533 50.2063 101.779 48.6794 102.811 47.6256C102.94 47.4896 103.088 47.3804 103.245 47.3042C103.402 47.2281 103.565 47.1866 103.724 47.1822C106.956 47.1098 101.792 54.5296 101.136 55.3698C93.4259 65.3385 85.7647 75.3469 78.1521 85.3951C77.3793 86.4142 77.6378 86.7313 78.9275 86.3464C86.4695 84.0879 93.6248 80.9495 100.393 76.9311C103.242 75.2355 105.372 77.4185 102.915 79.7154C95.3401 86.7942 83.2331 91.8182 73.2275 94.0036C72.8755 94.0817 72.545 94.2359 72.259 94.4556C71.9731 94.6752 71.7388 94.9549 71.5727 95.2749C66.3484 105.265 64.3223 116.311 61.9285 127.117Z" fill="#2D3B4B"/>
</g>
</svg>
