<svg width="43" height="43" viewBox="0 0 43 43" fill="none" xmlns="http://www.w3.org/2000/svg">
<g id="doodle_85">
<path id="Vector" d="M2.63499 23.709L24.2428 41.3012C24.6351 41.6149 25.1291 41.7981 25.6639 41.828C26.1988 41.8579 26.7512 41.7333 27.2531 41.4695C40.5237 34.461 44.7179 24.4481 39.8359 11.4309C31.9203 -9.75457 7.85467 6.60567 1.79668 17.7719C1.24056 18.7962 1.0199 19.9506 1.17302 21.0349C1.32614 22.1192 1.84332 23.0652 2.63499 23.709Z" fill="#FFB94F" stroke="#FEE8A1" stroke-width="2"/>
<path id="Vector_2" d="M2.64671 23.709C1.85504 23.0652 1.33785 22.1192 1.18474 21.0349C1.03162 19.9506 1.25228 18.7962 1.8084 17.7719C7.86639 6.60567 31.932 -9.75457 39.8476 11.4309C44.7297 24.4481 40.5354 34.461 27.2648 41.4695C26.7629 41.7333 26.2105 41.8579 25.6756 41.828C25.1408 41.7981 24.6468 41.6149 24.2545 41.3012L2.64671 23.709Z" fill="#FFB94F"/>
</g>
</svg>
