<svg width="38" height="38" viewBox="0 0 38 38" fill="none" xmlns="http://www.w3.org/2000/svg">
<g id="doodle_90">
<path id="Vector" d="M36.5161 18.9136C36.5437 14.2178 34.7047 9.7033 31.4037 6.36336C28.1028 3.02342 23.6103 1.13161 18.9145 1.10402C16.5894 1.09036 14.2844 1.53475 12.131 2.41191C9.97763 3.28908 8.01817 4.58181 6.3644 6.21626C4.71063 7.85071 3.39497 9.79493 2.49256 11.9378C1.59016 14.0807 1.11862 16.3804 1.10496 18.7056C1.0913 21.0307 1.53578 23.3356 2.41295 25.489C3.29012 27.6424 4.58284 29.6019 6.21729 31.2557C7.85175 32.9095 9.79588 34.2251 11.9388 35.1275C14.0817 36.0299 16.3814 36.5014 18.7065 36.515C23.4023 36.5426 27.9167 34.7037 31.2566 31.4028C34.5966 28.1019 36.4885 23.6094 36.5161 18.9136Z" stroke="#FBB1A5" stroke-width="2"/>
<path id="Vector_2" d="M18.7065 36.515C28.485 36.5725 36.4586 28.6921 36.5161 18.9136C36.5735 9.13509 28.693 1.16147 18.9145 1.10402C9.13604 1.04657 1.16241 8.92705 1.10496 18.7056C1.04752 28.484 8.928 36.4576 18.7065 36.515Z" fill="#BE5108"/>
</g>
</svg>
