<svg width="66" height="50" viewBox="0 0 66 50" fill="none" xmlns="http://www.w3.org/2000/svg">
<g id="doodle_43">
<path id="Vector" d="M5.36686 25.049L34.2416 46.0866C39.5788 49.9723 44.0991 49.3967 47.8024 44.3596L64.0733 22.1418C64.2918 21.846 64.3309 21.4256 64.1825 20.9661C64.0342 20.5065 63.7096 20.0423 63.2747 19.6678C54.6668 12.1092 45.1368 6.02067 34.6848 1.40224C34.2226 1.2045 33.7192 1.14324 33.2404 1.22641C32.7616 1.30958 32.33 1.5333 32.0021 1.86829C25.1357 8.83412 16.9684 13.4034 7.50028 15.5761C-0.158644 17.3379 -0.869789 20.4955 5.36686 25.049Z" fill="#3D1123" stroke="#BCE8DB" stroke-width="2"/>
<path id="Vector_2" d="M5.37858 25.049C-0.858071 20.4955 -0.146925 17.3379 7.512 15.5761C16.9801 13.4034 25.1474 8.83412 32.0138 1.86829C32.3417 1.5333 32.7734 1.30958 33.2521 1.22641C33.7309 1.14324 34.2343 1.2045 34.6965 1.40224C45.1485 6.02067 54.6785 12.1092 63.2864 19.6678C63.7213 20.0423 64.0459 20.5065 64.1943 20.9661C64.3426 21.4256 64.3035 21.846 64.085 22.1418L47.8141 44.3596C44.1108 49.3967 39.5905 49.9723 34.2533 46.0866L5.37858 25.049Z" fill="#3D1123"/>
</g>
</svg>
