<svg width="143" height="134" viewBox="0 0 143 134" fill="none" xmlns="http://www.w3.org/2000/svg">
<g id="doodle_91">
<path id="Vector" d="M13.7612 74.4132C23.3951 81.0245 50.4899 72.7567 60.4743 88.2841C61.0261 89.1578 61.2659 90.2369 61.1552 91.3481C60.221 100.314 61.2348 109.024 64.1965 117.48C64.3134 117.832 64.5426 118.188 64.8699 118.527C65.1972 118.867 65.6156 119.181 66.0992 119.452C68.8421 121.009 70.6565 120.191 71.5423 117C73.7369 108.942 77.0878 102.243 81.5951 96.9022C90.5572 86.252 109.829 74.3505 123.835 68.0002C130.109 65.1913 135.631 56.0802 123.107 58.0356C113.489 59.512 103.802 60.315 94.0447 60.4447C93.8042 60.4474 93.5658 60.3997 93.3455 60.3045C93.1252 60.2094 92.9281 60.0691 92.7674 59.8931C92.6067 59.7171 92.4862 59.5095 92.4138 59.284C92.3415 59.0586 92.319 58.8207 92.348 58.5862C93.5205 48.6866 99.397 19.8111 92.5418 12.5335C84.8601 4.38276 81.0952 10.3817 78.3712 17.7195C66.9175 49.0346 44.4261 58.5737 14.3217 69.8937C11.2597 71.048 11.0728 72.5546 13.7612 74.4132Z" stroke="#8D94AE" stroke-width="2"/>
<path id="Vector_2" d="M60.4743 88.2841C50.4899 72.7567 23.3951 81.0245 13.7612 74.4132C11.0728 72.5546 11.2597 71.048 14.3217 69.8937C44.4261 58.5737 66.9175 49.0346 78.3712 17.7195C81.0952 10.3817 84.8601 4.38276 92.5418 12.5335C99.397 19.8111 93.5205 48.6866 92.348 58.5862C92.319 58.8207 92.3415 59.0586 92.4138 59.284C92.4862 59.5095 92.6067 59.7171 92.7674 59.8931C92.9281 60.0691 93.1252 60.2094 93.3455 60.3045C93.5658 60.3997 93.8042 60.4474 94.0447 60.4447C103.802 60.315 113.489 59.512 123.107 58.0356C135.631 56.0802 130.109 65.1913 123.835 68.0002C109.829 74.3505 90.5573 86.252 81.5951 96.9022C77.0878 102.243 73.7369 108.942 71.5423 117C70.6565 120.191 68.8421 121.009 66.0992 119.452C65.6156 119.181 65.1972 118.867 64.8699 118.527C64.5426 118.188 64.3134 117.832 64.1965 117.48C61.2348 109.024 60.2211 100.314 61.1552 91.3481C61.2659 90.2369 61.0261 89.1578 60.4743 88.2841Z" fill="#1A285D"/>
</g>
</svg>
