<svg width="33" height="42" viewBox="0 0 33 42" fill="none" xmlns="http://www.w3.org/2000/svg">
<g id="doodle_92">
<path id="Vector" d="M31.2092 13.5911C31.1162 11.9606 30.7031 10.3644 29.9932 8.89357C29.2833 7.42276 28.2907 6.10617 27.072 5.01898C25.8533 3.93178 24.4324 3.0953 22.8905 2.55723C21.3485 2.01917 19.7156 1.79009 18.0851 1.88307L13.6361 2.13666C12.0055 2.2296 10.4092 2.64279 8.93836 3.35264C7.46752 4.06249 6.1509 5.05508 5.06368 6.27377C3.97645 7.49246 3.13993 8.91338 2.60184 10.4554C2.06376 11.9974 1.8347 13.6302 1.92768 15.2607L2.67516 28.3683C2.76814 29.9988 3.18132 31.595 3.89119 33.0658C4.60106 34.5366 5.59372 35.8532 6.81241 36.9404C8.03109 38.0276 9.45195 38.8641 10.9939 39.4022C12.5359 39.9402 14.1687 40.1693 15.7992 40.0763L20.2483 39.8227C21.8789 39.7298 23.4751 39.3166 24.9459 38.6068C26.4168 37.8969 27.7334 36.9043 28.8206 35.6856C29.9078 34.4669 30.7445 33.046 31.2825 31.504C31.8206 29.962 32.0497 28.3292 31.9567 26.6987L31.2092 13.5911Z" fill="#FFB94F" stroke="#FEE8A1" stroke-width="2"/>
<path id="Vector_2" d="M18.09 1.87991L13.6407 2.13361C6.78348 2.52459 1.54157 8.40042 1.93256 15.2576L2.67993 28.3652C3.07092 35.2224 8.94675 40.4643 15.804 40.0733L20.2533 39.8196C27.1105 39.4286 32.3524 33.5528 31.9614 26.6956L31.2141 13.588C30.8231 6.73083 24.9472 1.48892 18.09 1.87991Z" fill="#FFB94F"/>
</g>
</svg>
