<svg width="52" height="105" viewBox="0 0 52 105" fill="none" xmlns="http://www.w3.org/2000/svg">
<path d="M20.1571 79.9448C19.8498 82.617 19.1883 90.3027 18.1725 103.002C17.9694 105.487 18.9539 106.427 21.126 105.823C21.244 105.789 21.3519 105.727 21.4404 105.643C21.5289 105.558 21.5953 105.454 21.6339 105.338C22.035 104.171 22.2511 102.739 22.2824 101.041C22.3762 95.4361 22.7512 87.8311 23.4075 78.2258" stroke="#9390A2" stroke-width="2"/>
<path d="M23.4077 78.2259C30.9711 67.0163 37.5994 55.3014 43.2928 43.0813C45.3086 38.7527 52.6142 22.2352 49.8404 18.2347C46.551 13.492 40.9331 25.7434 40.0893 27.642C37.0212 34.5126 33.8386 42.1775 30.5413 50.6368C30.1298 51.689 29.6141 51.9391 28.9943 51.3869C28.8183 51.2312 28.7014 50.9917 28.6661 50.715C28.4578 49.0325 28.4213 47.5922 28.5567 46.3942C28.7677 44.5971 34.6512 -5.98675 27.3535 1.81882C24.8688 4.47537 23.2749 12.3278 22.6733 15.9141C20.8449 26.7227 19.2015 37.5572 17.743 48.4178C17.1179 53.059 14.9224 45.48 14.7974 44.7612C13.4691 37.0311 11.9481 29.3402 10.2344 21.6883C9.52595 18.5369 8.45031 15.5339 7.00743 12.6794C5.49945 9.70252 2.15533 9.27277 1.44431 13.1326C0.162915 20.0474 1.88966 29.1969 3.62423 35.9711C6.54643 47.436 10.2448 58.643 14.7192 69.5921C16.1491 73.1003 18.3602 76.4366 20.1573 79.9448" stroke="#FEB7A6" stroke-width="2"/>
<path d="M23.4086 78.2249C22.2131 76.295 20.7598 79.3422 20.1582 79.9438" stroke="#934B5A" stroke-width="2"/>
<path d="M23.4077 78.225C22.2123 76.2951 20.759 79.3424 20.1573 79.944C18.3602 76.4358 16.1491 73.0995 14.7192 69.5912C10.2448 58.6421 6.54643 47.4351 3.62423 35.9703C1.88966 29.1961 0.162915 20.0466 1.44431 13.1317C2.15533 9.27192 5.49945 9.70166 7.00744 12.6786C8.45031 15.5331 9.52595 18.536 10.2344 21.6874C11.9481 29.3393 13.4691 37.0303 14.7974 44.7603C14.9224 45.4791 17.1179 53.0581 17.743 48.417C19.2015 37.5564 20.8449 26.7218 22.6733 15.9133C23.2749 12.327 24.8688 4.47452 27.3535 1.81797C34.6512 -5.9876 28.7677 44.5962 28.5567 46.3933C28.4213 47.5914 28.4578 49.0316 28.6661 50.7141C28.7014 50.9909 28.8183 51.2304 28.9943 51.3861C29.6141 51.9382 30.1298 51.6882 30.5413 50.636C33.8386 42.1767 37.0212 34.5118 40.0893 27.6412C40.9331 25.7425 46.551 13.4911 49.8404 18.2339C52.6142 22.2343 45.3086 38.7518 43.2928 43.0804C37.5994 55.3006 30.9711 67.0154 23.4077 78.225Z" fill="#BE5108"/>
<path d="M23.4075 78.2249C22.7512 87.8301 22.3762 95.4351 22.2824 101.04C22.2511 102.738 22.035 104.171 21.6339 105.337C21.5953 105.453 21.5289 105.557 21.4404 105.642C21.3519 105.726 21.244 105.788 21.126 105.822C18.9539 106.426 17.9694 105.486 18.1725 103.001C19.1883 90.3018 19.8498 82.616 20.1571 79.9438C20.7588 79.3422 22.2121 76.295 23.4075 78.2249Z" fill="#F3DBB9"/>
</svg>
