<svg width="246" height="151" viewBox="0 0 246 151" fill="none" xmlns="http://www.w3.org/2000/svg">
<path d="M16.6229 103.167C26.6942 106.947 37.0305 108.363 47.6318 107.415C54.3693 106.818 64.9148 101.483 65.1659 93.6783C65.2007 92.7437 64.873 92.5973 64.1825 93.2389C51.9317 104.621 38.2999 102.1 23.5696 99.0871C21.1703 98.5919 18.6002 97.605 15.8592 96.1264C10.8166 93.4133 5.69723 90.8362 0.501168 88.3951C-0.217213 85.7169 0.434904 83.1327 2.45753 80.6428C15.0955 65.0128 38.5615 55.911 57.5602 51.7472C57.8683 51.6823 58.1566 51.5463 58.4019 51.35C58.6473 51.1537 58.8428 50.9027 58.9725 50.6173C63.4921 40.8459 69.5773 32.201 77.2284 24.6824C79.3103 22.6214 82.4385 17.9658 83.4638 25.1636C84.496 32.3265 85.1167 39.2976 85.3259 46.0768C85.3313 46.2692 85.3746 46.4586 85.4532 46.6343C85.5319 46.8099 85.6445 46.9683 85.7844 47.1005C85.9243 47.2326 86.0888 47.3358 86.2686 47.4043C86.4485 47.4728 86.6401 47.5052 86.8325 47.4997C95.3484 47.2625 103.463 46.8022 111.177 46.1187C129.58 44.5076 145.68 38.4502 162.597 31.5453C162.712 31.4967 162.837 31.4795 162.961 31.4954C163.084 31.5113 163.202 31.5598 163.301 31.636C163.401 31.7123 163.479 31.8136 163.528 31.9298C163.577 32.0461 163.595 32.1733 163.581 32.2986C162.862 38.5408 161.624 44.6854 159.867 50.7324C159.826 50.8725 159.823 51.0202 159.857 51.1623C159.892 51.3043 159.962 51.4362 160.063 51.5461C160.164 51.656 160.291 51.7406 160.434 51.7921C160.577 51.8436 160.731 51.8606 160.882 51.8413C175.455 49.9373 190.645 45.2399 202.656 37.2261C214.802 29.1182 220.556 19.8594 229.522 5.67315C229.93 5.01405 236.971 -4.33885 236.615 2.47182C235.893 16.5326 235.265 35.5522 238.216 53.2432C239.774 62.6589 242.944 73.3091 245.319 83.3629C247.045 90.6653 243.018 93.5737 236.876 95.6451C234.658 96.3914 232.957 95.952 231.771 94.3269C222.449 81.6158 211.831 70.7668 195.406 68.4025C195.046 68.3509 194.679 68.4141 194.356 68.583C194.033 68.7519 193.771 69.0181 193.606 69.344C190.834 74.8784 187.978 81.4693 184.902 86.0202C172.337 104.621 147.375 108.712 126.399 110.606C125.618 110.675 125.527 111 126.127 111.579C132.676 117.95 140.01 124.394 145.733 131.477C145.823 131.589 145.884 131.722 145.909 131.864C145.935 132.006 145.924 132.152 145.878 132.288C145.832 132.425 145.753 132.548 145.647 132.645C145.541 132.743 145.412 132.813 145.272 132.848C144.324 133.085 143.274 133.238 142.123 133.308C120.614 134.556 100.217 130.745 80.932 121.873C80.774 121.799 80.5945 121.782 80.4232 121.826C80.2519 121.87 80.0992 121.971 79.9904 122.114C72.0882 132.443 63.3351 142.002 53.7311 150.79C53.6364 150.877 53.5218 150.94 53.3966 150.973C53.2713 151.006 53.1389 151.009 53.0098 150.98C52.8807 150.952 52.7585 150.893 52.653 150.809C52.5476 150.725 52.4618 150.618 52.4024 150.497C45.9719 137.468 38.0802 125.399 28.7272 114.288C24.6471 109.448 20.6123 105.741 16.6229 103.167ZM52.3051 84.9569C53.6767 82.0421 53.7943 78.6831 52.6321 75.6188C51.4699 72.5544 49.1231 70.0358 46.1079 68.6169C44.6149 67.9144 43.0028 67.503 41.3635 67.4062C39.7243 67.3095 38.09 67.5293 36.5541 68.053C35.0182 68.5768 33.6106 69.3942 32.4118 70.4588C31.213 71.5233 30.2465 72.8141 29.5674 74.2573C28.1958 77.1721 28.0782 80.5312 29.2404 83.5955C30.4026 86.6598 32.7494 89.1784 35.7646 90.5973C37.2576 91.2998 38.8697 91.7113 40.509 91.808C42.1482 91.9048 43.7825 91.685 45.3184 91.1612C46.8543 90.6375 48.2619 89.82 49.4607 88.7554C50.6595 87.6909 51.626 86.4002 52.3051 84.9569Z" fill="#FFB94F"/>
</svg>
