<svg width="251" height="153" viewBox="0 0 251 153" fill="none" xmlns="http://www.w3.org/2000/svg">
<g id="doodle_127">
<path id="Vector" d="M4.50518 89.3945C2.87313 90.0292 1.78161 90.765 1.23061 91.602C1.12235 91.7654 1.0501 91.9501 1.01836 92.1443C0.986625 92.3386 0.996105 92.5382 1.0462 92.7308C1.0963 92.9233 1.18592 93.1046 1.30947 93.2632C1.43303 93.4218 1.58784 93.5544 1.76418 93.6525L20.6269 104.167" stroke="#8B8684" stroke-width="2"/>
<path id="Vector_2" d="M20.6229 104.167C24.6123 106.741 28.6471 110.448 32.7272 115.288C42.0802 126.399 49.9719 138.468 56.4024 151.497C56.4618 151.618 56.5476 151.725 56.653 151.809C56.7585 151.893 56.8807 151.952 57.0098 151.98C57.1389 152.009 57.2713 152.006 57.3966 151.973C57.5218 151.94 57.6364 151.877 57.7311 151.79C67.3351 143.002 76.0882 133.443 83.9904 123.114C84.0992 122.971 84.2519 122.87 84.4232 122.826C84.5945 122.782 84.774 122.799 84.932 122.873C104.217 131.745 124.614 135.556 146.123 134.308C147.274 134.238 148.324 134.085 149.272 133.848C149.412 133.813 149.541 133.743 149.647 133.645C149.753 133.548 149.832 133.425 149.878 133.288C149.924 133.152 149.935 133.006 149.909 132.864C149.884 132.722 149.823 132.589 149.733 132.477C144.01 125.394 136.676 118.95 130.127 112.579C129.527 112 129.618 111.675 130.399 111.606C151.375 109.712 176.337 105.621 188.902 87.0202C191.978 82.4693 194.834 75.8784 197.606 70.344C197.771 70.0181 198.033 69.7519 198.356 69.583C198.679 69.4141 199.046 69.3509 199.406 69.4025C215.831 71.7668 226.449 82.6158 235.771 95.3269C236.957 96.952 238.658 97.3914 240.876 96.6451C247.017 94.5737 251.045 91.6653 249.319 84.3629C246.944 74.3091 243.774 63.6589 242.216 54.2432C239.265 36.5522 239.893 17.5326 240.615 3.47182C240.971 -3.33885 233.93 6.01405 233.522 6.67315C224.556 20.8594 218.802 30.1182 206.656 38.2261C194.645 46.2399 179.455 50.9373 164.882 52.8413C164.731 52.8606 164.577 52.8436 164.434 52.7921C164.291 52.7406 164.164 52.656 164.063 52.5461C163.962 52.4362 163.892 52.3043 163.857 52.1623C163.823 52.0202 163.826 51.8725 163.867 51.7324C165.624 45.6854 166.862 39.5408 167.581 33.2986C167.595 33.1733 167.577 33.0461 167.528 32.9298C167.479 32.8136 167.401 32.7123 167.301 32.636C167.202 32.5598 167.084 32.5113 166.961 32.4954C166.837 32.4795 166.712 32.4967 166.597 32.5453C149.68 39.4502 133.58 45.5076 115.177 47.1187C107.463 47.8022 99.3484 48.2625 90.8325 48.4997C90.6401 48.5053 90.4485 48.4728 90.2686 48.4043C90.0888 48.3358 89.9243 48.2326 89.7844 48.1005C89.6445 47.9683 89.5319 47.8099 89.4532 47.6343C89.3746 47.4586 89.3313 47.2692 89.3259 47.0768C89.1167 40.2976 88.496 33.3265 87.4638 26.1636C86.4385 18.9658 83.3103 23.6214 81.2284 25.6824C73.5773 33.201 67.492 41.8459 62.9725 51.6173C62.8428 51.9027 62.6473 52.1537 62.4019 52.35C62.1566 52.5463 61.8683 52.6823 61.5602 52.7472C42.5615 56.911 19.0955 66.0128 6.45753 81.6428C4.4349 84.1327 3.78279 86.7168 4.50117 89.3951" stroke="#FFC791" stroke-width="2"/>
<path id="Vector_3" d="M20.6237 104.167C30.6949 107.947 41.0313 109.363 51.6326 108.414C58.3701 107.818 68.9156 102.482 69.1666 94.6778C69.2015 93.7432 68.8738 93.5967 68.1833 94.2384C55.9325 105.621 42.3006 103.1 27.5703 100.087C25.1711 99.5913 22.601 98.6045 19.86 97.1259C14.8173 94.4128 9.69801 91.8356 4.50195 89.3945" stroke="#8C5022" stroke-width="2"/>
<path id="Vector_4" d="M56.3099 85.9569C57.6815 83.0421 57.7991 79.6831 56.6369 76.6187C55.4747 73.5544 53.1279 71.0358 50.1127 69.6169C48.6197 68.9144 47.0075 68.503 45.3683 68.4062C43.7291 68.3094 42.0948 68.5292 40.5589 69.053C39.023 69.5767 37.6154 70.3942 36.4166 71.4587C35.2178 72.5233 34.2513 73.814 33.5722 75.2573C32.2006 78.1721 32.0829 81.5311 33.2452 84.5955C34.4074 87.6598 36.7542 90.1784 39.7694 91.5973C41.2624 92.2998 42.8745 92.7112 44.5138 92.808C46.153 92.9048 47.7873 92.685 49.3232 92.1612C50.8591 91.6375 52.2667 90.8199 53.4655 89.7554C54.6643 88.6908 55.6308 87.4002 56.3099 85.9569Z" stroke="#FFC791" stroke-width="2"/>
<path id="Vector_5" d="M43.7244 91.0279C45.878 91.2125 48.0197 90.4989 49.6784 89.0441C51.3371 87.5893 52.3769 85.5124 52.5691 83.2704C52.6642 82.1603 52.5485 81.043 52.2283 79.9824C51.9082 78.9217 51.39 77.9386 50.7032 77.0889C50.0165 76.2393 49.1748 75.5398 48.226 75.0305C47.2773 74.5212 46.2401 74.2121 45.1738 74.1207C43.0202 73.9361 40.8785 74.6497 39.2198 76.1045C37.5611 77.5593 36.5214 79.6361 36.3292 81.8781C36.234 82.9883 36.3497 84.1055 36.6699 85.1662C36.99 86.2268 37.5083 87.21 38.195 88.0596C38.8817 88.9093 39.7235 89.6087 40.6722 90.118C41.6209 90.6273 42.6581 90.9365 43.7244 91.0279Z" stroke="#88868E" stroke-width="2"/>
<path id="Vector_6" d="M45.3841 77.5472C45.0787 77.152 44.5825 76.9301 44.0049 76.9302C43.4272 76.9304 42.8153 77.1525 42.3038 77.5479C42.0505 77.7436 41.8295 77.976 41.6534 78.2318C41.4772 78.4875 41.3495 78.7616 41.2773 79.0384C41.2051 79.3152 41.1899 79.5892 41.2327 79.8449C41.2755 80.1006 41.3754 80.3329 41.5266 80.5286C41.8321 80.9238 42.3282 81.1457 42.9058 81.1456C43.4835 81.1454 44.0954 80.9232 44.6069 80.5278C44.8602 80.3321 45.0812 80.0998 45.2574 79.844C45.4335 79.5883 45.5613 79.3142 45.6335 79.0374C45.7057 78.7606 45.7208 78.4866 45.678 78.2309C45.6352 77.9752 45.5354 77.7429 45.3841 77.5472Z" stroke="#898792" stroke-width="2"/>
<path id="Vector_7" d="M20.6229 104.167C30.6942 107.947 41.0305 109.363 51.6318 108.415C58.3693 107.818 68.9148 102.483 69.1659 94.6783C69.2007 93.7437 68.873 93.5973 68.1825 94.2389C55.9317 105.621 42.2999 103.1 27.5696 100.087C25.1703 99.5919 22.6002 98.605 19.8592 97.1264C14.8166 94.4133 9.69723 91.8362 4.50117 89.3951C3.78279 86.7169 4.4349 84.1327 6.45753 81.6428C19.0955 66.0128 42.5615 56.911 61.5602 52.7472C61.8683 52.6823 62.1566 52.5463 62.4019 52.35C62.6473 52.1537 62.8428 51.9027 62.9725 51.6173C67.4921 41.8459 73.5773 33.201 81.2284 25.6824C83.3103 23.6214 86.4385 18.9658 87.4638 26.1636C88.496 33.3265 89.1167 40.2976 89.3259 47.0768C89.3313 47.2692 89.3746 47.4586 89.4532 47.6343C89.5319 47.8099 89.6445 47.9683 89.7844 48.1005C89.9243 48.2326 90.0888 48.3358 90.2686 48.4043C90.4485 48.4728 90.6401 48.5052 90.8325 48.4997C99.3484 48.2625 107.463 47.8022 115.177 47.1187C133.58 45.5076 149.68 39.4502 166.597 32.5453C166.712 32.4967 166.837 32.4795 166.961 32.4954C167.084 32.5113 167.202 32.5598 167.301 32.636C167.401 32.7123 167.479 32.8136 167.528 32.9298C167.577 33.0461 167.595 33.1733 167.581 33.2986C166.862 39.5408 165.624 45.6854 163.867 51.7324C163.826 51.8725 163.823 52.0202 163.857 52.1623C163.892 52.3043 163.962 52.4362 164.063 52.5461C164.164 52.656 164.291 52.7406 164.434 52.7921C164.577 52.8436 164.731 52.8606 164.882 52.8413C179.455 50.9373 194.645 46.2399 206.656 38.2261C218.802 30.1182 224.556 20.8594 233.522 6.67315C233.93 6.01405 240.971 -3.33885 240.615 3.47182C239.893 17.5326 239.265 36.5522 242.216 54.2432C243.774 63.6589 246.944 74.3091 249.319 84.3629C251.045 91.6653 247.018 94.5737 240.876 96.6451C238.658 97.3914 236.957 96.952 235.771 95.3269C226.449 82.6158 215.831 71.7668 199.406 69.4025C199.046 69.3509 198.679 69.4141 198.356 69.583C198.033 69.7519 197.771 70.0181 197.606 70.344C194.834 75.8784 191.978 82.4693 188.902 87.0202C176.337 105.621 151.375 109.712 130.399 111.606C129.618 111.675 129.527 112 130.127 112.579C136.676 118.95 144.01 125.394 149.733 132.477C149.823 132.589 149.884 132.722 149.909 132.864C149.935 133.006 149.924 133.152 149.878 133.288C149.832 133.425 149.753 133.548 149.647 133.645C149.541 133.743 149.412 133.813 149.272 133.848C148.324 134.085 147.274 134.238 146.123 134.308C124.614 135.556 104.217 131.745 84.932 122.873C84.774 122.799 84.5945 122.782 84.4232 122.826C84.2519 122.87 84.0992 122.971 83.9904 123.114C76.0882 133.443 67.3351 143.002 57.7311 151.79C57.6364 151.877 57.5218 151.94 57.3966 151.973C57.2713 152.006 57.1389 152.009 57.0098 151.98C56.8807 151.952 56.7585 151.893 56.653 151.809C56.5476 151.725 56.4618 151.618 56.4024 151.497C49.9719 138.468 42.0802 126.399 32.7272 115.288C28.6471 110.448 24.6123 106.741 20.6229 104.167ZM56.3051 85.9569C57.6767 83.0421 57.7943 79.6831 56.6321 76.6188C55.4699 73.5544 53.1231 71.0358 50.1079 69.6169C48.6149 68.9144 47.0028 68.503 45.3635 68.4062C43.7243 68.3095 42.09 68.5293 40.5541 69.053C39.0182 69.5768 37.6106 70.3942 36.4118 71.4588C35.213 72.5233 34.2465 73.8141 33.5674 75.2573C32.1958 78.1721 32.0782 81.5312 33.2404 84.5955C34.4026 87.6598 36.7494 90.1784 39.7646 91.5973C41.2576 92.2998 42.8697 92.7113 44.509 92.808C46.1482 92.9048 47.7825 92.685 49.3184 92.1612C50.8543 91.6375 52.2619 90.82 53.4607 89.7554C54.6595 88.6909 55.626 87.4002 56.3051 85.9569Z" fill="#FFB94F"/>
<path id="Vector_8" d="M56.306 85.9569C55.6269 87.4002 54.6603 88.6908 53.4616 89.7554C52.2628 90.8199 50.8552 91.6375 49.3193 92.1612C47.7833 92.685 46.1491 92.9048 44.5098 92.808C42.8706 92.7112 41.2585 92.2998 39.7655 91.5973C36.7503 90.1784 34.4035 87.6598 33.2413 84.5955C32.079 81.5311 32.1967 78.1721 33.5682 75.2573C34.2474 73.814 35.2139 72.5233 36.4127 71.4587C37.6115 70.3942 39.019 69.5767 40.555 69.053C42.0909 68.5292 43.7252 68.3094 45.3644 68.4062C47.0036 68.503 48.6158 68.9144 50.1088 69.6169C53.124 71.0358 55.4708 73.5544 56.633 76.6187C57.7952 79.6831 57.6776 83.0421 56.306 85.9569ZM43.7207 91.0275C45.8743 91.2122 48.016 90.4985 49.6747 89.0437C51.3334 87.5889 52.3732 85.5121 52.5654 83.27C52.6605 82.1599 52.5448 81.0426 52.2246 79.982C51.9045 78.9214 51.3863 77.9382 50.6995 77.0886C50.0128 76.2389 49.1711 75.5395 48.2223 75.0302C47.2736 74.5209 46.2364 74.2117 45.1701 74.1203C43.0165 73.9357 40.8748 74.6493 39.2161 76.1041C37.5575 77.5589 36.5177 79.6357 36.3255 81.8778C36.2303 82.9879 36.3461 84.1052 36.6662 85.1658C36.9863 86.2264 37.5046 87.2097 38.1913 88.0593C38.878 88.9089 39.7198 89.6083 40.6685 90.1176C41.6173 90.6269 42.6544 90.9361 43.7207 91.0275Z" fill="#FEFDF3"/>
<path id="Vector_9" d="M43.7244 91.0279C42.6581 90.9365 41.6209 90.6273 40.6722 90.118C39.7235 89.6087 38.8817 88.9093 38.195 88.0596C37.5083 87.21 36.99 86.2268 36.6699 85.1662C36.3497 84.1055 36.234 82.9883 36.3292 81.8781C36.5214 79.6361 37.5611 77.5593 39.2198 76.1045C40.8785 74.6497 43.0202 73.9361 45.1738 74.1207C46.2401 74.2121 47.2773 74.5212 48.226 75.0305C49.1748 75.5398 50.0165 76.2393 50.7032 77.0889C51.39 77.9386 51.9082 78.9217 52.2283 79.9824C52.5485 81.043 52.6642 82.1603 52.5691 83.2704C52.3769 85.5124 51.3371 87.5893 49.6784 89.0441C48.0197 90.4989 45.878 91.2125 43.7244 91.0279ZM45.384 77.5475C45.0786 77.1523 44.5824 76.9304 44.0047 76.9305C43.4271 76.9306 42.8152 77.1528 42.3037 77.5482C42.0504 77.7439 41.8294 77.9763 41.6533 78.232C41.4771 78.4878 41.3493 78.7619 41.2772 79.0387C41.205 79.3154 41.1898 79.5895 41.2326 79.8452C41.2754 80.1009 41.3753 80.3332 41.5265 80.5289C41.8319 80.924 42.328 81.146 42.9057 81.1458C43.4834 81.1457 44.0952 80.9235 44.6068 80.5281C44.8601 80.3324 45.0811 80.1 45.2572 79.8443C45.4334 79.5886 45.5612 79.3145 45.6333 79.0377C45.7055 78.7609 45.7206 78.4868 45.6779 78.2312C45.6351 77.9755 45.5352 77.7431 45.384 77.5475Z" fill="#120F29"/>
<path id="Vector_10" d="M44.603 80.5282C45.6682 79.705 46.0161 78.3705 45.3801 77.5476C44.7441 76.7247 43.365 76.725 42.2998 77.5483C41.2346 78.3715 40.8867 79.706 41.5227 80.5289C42.1587 81.3518 43.5378 81.3515 44.603 80.5282Z" fill="#FFFEFB"/>
<path id="Vector_11" d="M4.50518 89.3945C9.70124 91.8356 14.8206 94.4128 19.8632 97.1259C22.6042 98.6045 25.1743 99.5913 27.5736 100.087C42.3039 103.1 55.9357 105.621 68.1865 94.2384C68.877 93.5967 69.2048 93.7432 69.1699 94.6778C68.9188 102.482 58.3733 107.818 51.6359 108.414C41.0345 109.363 30.6982 107.947 20.6269 104.167L1.76418 93.6525C1.58784 93.5544 1.43303 93.4218 1.30947 93.2632C1.18592 93.1046 1.0963 92.9233 1.0462 92.7308C0.996105 92.5382 0.986625 92.3386 1.01836 92.1443C1.0501 91.9501 1.12235 91.7654 1.23061 91.602C1.78161 90.765 2.87313 90.0292 4.50518 89.3945Z" fill="#180E15"/>
</g>
</svg>
