<svg width="135" height="394" viewBox="0 0 135 394" fill="none" xmlns="http://www.w3.org/2000/svg">
<path d="M63.1392 99.1266C62.7831 99.1042 62.4361 99.0042 62.1229 98.834C61.8097 98.6637 61.538 98.4273 61.3272 98.1416C61.1164 97.8558 60.9716 97.5278 60.9032 97.1808C60.8348 96.8337 60.8444 96.4763 60.9314 96.1338C62.7794 88.7254 66.0748 81.9957 70.8175 75.9447C89.1013 52.5911 109.773 31.3717 132.832 12.2865C135.204 10.324 135.621 8.00169 134.083 5.31962C128.834 -3.78143 118.727 0.756848 110.362 4.53464C79.9185 18.3457 58.0613 50.9475 50.6284 82.6908C50.1051 84.8822 49.3527 84.964 48.3714 82.9361C41.2247 68.1193 34.8547 52.6402 29.2616 36.4987C24.6661 23.2519 18.1819 12.8507 9.80859 5.2951C9.51011 5.03545 9.16115 4.84552 8.78745 4.73935C8.41376 4.63319 8.02489 4.61352 7.64983 4.68182C-1.64746 6.54619 -2.16249 13.0224 -3.87967 22.2706C-11.3126 62.5753 14.1504 92.3315 34.4867 123.069C34.9137 123.714 35.2095 124.431 35.3569 125.181C35.5043 125.931 35.5006 126.697 35.3456 127.436C28.9675 157.282 21.7224 186.899 13.6107 216.287C13.5741 216.424 13.5024 216.549 13.4026 216.649C13.3028 216.749 13.1786 216.821 13.0421 216.859C12.9056 216.896 12.7615 216.897 12.6246 216.861C12.4877 216.825 12.3626 216.754 12.2617 216.655C-4.39493 200.661 -18.2794 176.498 -31.4772 157.364C-35.533 151.509 -41.5759 146.872 -49.6057 143.454C-50.345 143.14 -51.1642 143.122 -51.8872 143.405C-103.893 164.576 -14.9189 249.355 2.91519 266.478C5.30289 268.767 6.21051 271.54 5.63812 274.794C1.14075 299.963 -2.05626 325.639 -3.95334 351.822C-5.44974 372.6 -9.44838 388.569 13.7581 392.838C34.7812 396.714 86.3703 378.904 89.9273 352.95C93.1899 329.106 62.9675 338.673 51.1435 343.53C37.3243 349.189 24.053 354.43 11.3295 359.255C7.53535 360.694 5.90816 359.467 6.44783 355.575L16.8244 280.853C17.3151 277.239 19.2858 275.252 22.7365 274.892C48.4697 272.316 68.2172 265.742 95.3731 251.367C105.087 246.24 114.63 243.517 124.86 240.131C125.616 239.879 126.241 239.351 126.601 238.66C135.849 220.875 123.952 208.143 105.75 207.677C85.2908 207.137 51.2663 224.505 31.0772 232.453C30.6824 232.607 30.2541 232.655 29.835 232.592C29.416 232.53 29.0205 232.358 28.6881 232.095C28.3558 231.832 28.098 231.487 27.9404 231.094C27.7828 230.7 27.7309 230.273 27.7898 229.853C32.3035 198.404 42.0669 166.857 49.598 136.34C49.8271 135.418 50.3329 134.587 51.0476 133.96C51.7624 133.333 52.6518 132.939 53.5966 132.832C85.855 129.275 113.379 118.31 131.385 90.0746C131.636 89.6765 131.803 89.2317 131.878 88.7674C131.952 88.3031 131.931 87.8291 131.816 87.3744C131.701 86.9197 131.495 86.4939 131.21 86.123C130.925 85.7522 130.567 85.444 130.158 85.2175C119.446 79.2483 108.546 78.9375 97.4582 84.2853C89.9272 87.9159 70.5476 99.4946 63.1392 99.1266Z" fill="#88B1E1"/>
</svg>
