<svg width="163" height="226" viewBox="0 0 163 226" fill="none" xmlns="http://www.w3.org/2000/svg">
<path d="M102.823 32.8084C97.9713 37.0934 93.2908 41.5579 88.7818 46.2019C83.5564 51.5837 82.0213 56.5509 79.16 62.5772C76.6642 67.8295 75.4523 75.8401 74.1643 82.3393C73.762 84.379 73.3051 88.303 72.3738 91.1718C72.3437 91.2672 72.2929 91.3548 72.2249 91.4285C72.157 91.5022 72.0735 91.5603 71.9802 91.5988C71.887 91.6372 71.7861 91.6551 71.6848 91.6511C71.5834 91.6471 71.4839 91.6214 71.3932 91.5758C69.3649 90.5547 67.6563 89.1792 66.2672 87.4492C62.484 82.7379 54.2254 72.5781 47.0727 74.3466C42.5485 75.4721 41.2721 83.0457 41.6797 87.1921C42.3909 94.4911 43.0801 101.798 43.7472 109.114C44.7986 120.572 47.8147 131.816 50.6321 142.908" stroke="#8B8B91" stroke-width="2"/>
<path d="M50.6328 142.909C51.9613 149.642 52.8446 159.473 59.2359 164.826" stroke="#828181" stroke-width="2"/>
<path d="M59.2332 164.826L61.7148 167.067C61.9209 167.254 62.0544 167.438 62.1153 167.617C63.083 170.422 61.4971 172.044 60.964 174.229C58.5701 183.994 55.0088 193.968 49.1834 202.271C48.3513 203.457 47.8196 204.295 47.5883 204.786L46.5485 207.014C46.4748 207.169 46.3992 207.308 46.3303 207.415C46.2613 207.522 46.2018 207.593 46.1583 207.619C45.1561 208.173 44.621 209.057 44.553 210.27C44.5498 210.32 44.5105 210.393 44.4397 210.479C44.369 210.565 44.2697 210.661 44.1536 210.755C43.8077 211.031 43.44 211.449 43.0503 212.011C38.9085 217.96 36.386 221.759 35.4828 223.409C33.4702 227.078 31.9178 229.724 30.8254 231.348C30.0433 232.514 29.3054 235.402 32.0255 234.419C32.2332 234.346 32.4155 234.201 32.5443 234.005C33.5884 232.446 35.104 229.867 37.091 226.269C40.2702 220.519 45.9123 211.832 54.0173 200.209C55.8646 197.563 57.3247 193.968 58.4199 190.942C60.7637 184.464 63.1233 178.438 64.3458 171.531C64.5537 170.344 65.214 169.512 66.3268 169.034C79.4974 163.391 91.6105 155.606 104.681 149.699C120.341 142.624 130.162 129.542 135.411 113.595C137.314 107.821 139.615 102.199 142.314 96.7291C143.238 94.8486 144.594 90.673 143.657 88.8007C142.158 85.8184 137.744 86.4626 135.52 87.9717C127.929 93.1194 122.795 97.9849 113.67 99.7659C113.076 99.8814 112.955 99.6948 113.309 99.206C117.533 93.3637 121.292 87.4962 123.909 80.7898C127.977 70.3905 130.812 59.7198 129.945 48.6167C129.401 41.655 128.661 34.7168 127.725 27.8022" stroke="#8B8B91" stroke-width="2"/>
<path d="M127.724 27.8018C127.43 24.7083 126.514 16.4593 122.551 16.7211C120.152 16.8808 117.558 19.6836 115.872 21.3937C111.856 25.4843 107.003 28.8029 102.82 32.8083" stroke="#828181" stroke-width="2"/>
<path d="M127.725 27.8023C127.126 27.9314 126.642 27.7976 126.271 27.4009C126.134 27.253 126.052 27.0249 126.043 26.7625C125.969 24.1583 124.705 15.8596 120.435 19.0252C116.172 22.1928 104.888 33.6382 102.821 32.8089" stroke="#0F1421" stroke-width="2"/>
<path d="M59.2359 164.826C58.8934 164.027 58.0904 162.522 56.8269 160.31C55.7243 158.389 54.8418 156.034 54.1793 153.244C53.3799 149.886 52.0815 146.595 51.4642 143.143C51.4387 143 51.3896 142.87 51.325 142.774C51.2605 142.677 51.1844 142.621 51.1094 142.615C50.9532 142.594 50.7944 142.692 50.6329 142.909" stroke="#0F1421" stroke-width="2"/>
<path d="M88.3891 118.887C93.2062 107.209 99.2279 97.0924 101.553 85.1069C102.364 80.9558 104.127 77.1042 104.917 72.8223C104.939 72.7104 104.928 72.5965 104.887 72.4965C104.846 72.3965 104.777 72.3153 104.689 72.2642C104.086 71.9177 103.699 72.2523 103.526 73.2682C103.047 76.0266 100.856 80.3333 99.8223 83.6051C97.041 92.4205 93.5483 100.412 89.5405 108.856C88.407 111.245 87.2166 114.151 85.9692 117.573C83.9589 123.092 81.5273 128.419 78.6745 133.555C77.7153 135.279 77.6167 136.959 76.5152 138.766C75.477 140.474 74.6552 142.291 74.0498 144.218C73.8432 144.877 74.0039 146.376 74.9915 144.859C76.8464 142.01 78.9156 137.235 81.2413 133.276C83.9561 128.647 86.3387 123.851 88.3891 118.887Z" stroke="#85878D" stroke-width="2"/>
<path d="M120.464 122.044L118.978 123.753C118.938 123.799 118.905 123.85 118.882 123.904C118.858 123.957 118.844 124.012 118.841 124.063C118.838 124.114 118.846 124.161 118.865 124.2C118.883 124.239 118.912 124.269 118.948 124.288C119.145 124.389 119.348 124.409 119.557 124.348C120.904 123.943 121.795 123.315 122.23 122.463C123.857 119.273 125.953 116.433 128.517 113.942C129.231 113.24 128.882 112.464 128.015 113.312C125.695 115.571 123.479 117.923 121.365 120.37C121.084 120.694 120.892 121.063 120.791 121.479C120.75 121.653 120.641 121.841 120.464 122.044Z" stroke="#21293C" stroke-width="2"/>
<path d="M55.0775 99.0401C51.3041 110.604 55.8444 122.997 60.3213 133.581C61.3921 136.109 67.43 151.564 68.0671 151.478C68.1021 151.474 68.1333 151.455 68.1587 151.422C68.1842 151.389 68.2033 151.343 68.2148 151.287C68.2263 151.231 68.2299 151.166 68.2255 151.096C68.221 151.026 68.2086 150.954 68.1889 150.883C66.1005 143.349 64.6248 138.498 63.7617 136.329C59.1311 124.702 54.3856 111.267 56.1706 99.2118C56.3779 97.8415 55.3931 98.0829 55.0775 99.0401Z" stroke="#85878D" stroke-width="2"/>
<path d="M114.652 124.702C103.475 135.141 90.8668 143.401 76.8289 149.481C76.4634 149.639 76.3428 149.833 76.467 150.065C76.5112 150.145 76.5923 150.203 76.6956 150.229C76.799 150.255 76.9177 150.248 77.0304 150.207C86.3699 146.872 94.9788 142.197 102.857 136.182C105.928 133.841 115.703 126.842 115.954 124.89C116.092 123.825 115.658 123.762 114.652 124.702Z" stroke="#777E88" stroke-width="2"/>
<path d="M93.3709 151.181C93.4029 151.274 93.4653 151.338 93.5578 151.375C93.6124 151.4 93.6868 151.396 93.7704 151.363C93.854 151.331 93.9424 151.272 94.0232 151.195C94.954 150.312 94.8107 150.145 93.5934 150.696C93.498 150.74 93.4218 150.814 93.3804 150.905C93.339 150.995 93.3356 151.094 93.3709 151.181Z" stroke="#303645" stroke-width="2"/>
<path d="M66.0942 156.971C65.4547 155.504 64.4592 154.321 63.1079 153.424C62.8227 153.238 62.75 153.344 62.8899 153.742C63.0217 154.125 64.8883 161.77 66.0506 159.02C66.1973 158.676 66.2769 158.317 66.2844 157.964C66.2919 157.612 66.2271 157.274 66.0942 156.971Z" stroke="#21293C" stroke-width="2"/>
<path d="M127.724 27.8018C127.126 27.9308 126.641 27.797 126.27 27.4003C126.133 27.2524 126.052 27.0243 126.043 26.762C125.968 24.1577 124.705 15.8591 120.434 19.0247C116.171 22.1922 104.887 33.6377 102.82 32.8083C107.003 28.8029 111.856 25.4843 115.872 21.3937C117.558 19.6836 120.152 16.8808 122.551 16.7211C126.514 16.4593 127.43 24.7083 127.724 27.8018Z" fill="#060A11"/>
<path d="M127.725 27.8018C128.662 34.7164 129.402 41.6546 129.946 48.6164C130.813 59.7195 127.978 70.3901 123.91 80.7895C121.293 87.4959 117.534 93.3634 113.31 99.2056C112.956 99.6944 113.076 99.881 113.67 99.7655C122.796 97.9845 127.93 93.119 135.521 87.9713C137.745 86.4622 142.159 85.8181 143.658 88.8003C144.595 90.6726 143.239 94.8482 142.315 96.7288C139.616 102.198 137.314 107.82 135.411 113.595C130.163 129.542 120.342 142.624 104.682 149.699C91.6112 155.606 79.4982 163.391 66.3275 169.034C65.2148 169.512 64.5545 170.344 64.3465 171.531C63.1241 178.438 60.7645 184.463 58.4207 190.941C57.3254 193.968 55.8654 197.563 54.018 200.209C45.913 211.832 40.271 220.518 37.0918 226.268C35.1048 229.867 33.5892 232.445 32.5451 234.005C32.4163 234.201 32.2339 234.346 32.0263 234.419C29.3061 235.402 30.0441 232.513 30.8262 231.347C31.9186 229.724 33.471 227.077 35.4836 223.408C36.3867 221.759 38.9092 217.96 43.051 212.011C43.4407 211.449 43.8085 211.03 44.1543 210.755C44.2705 210.66 44.3697 210.565 44.4405 210.479C44.5113 210.393 44.5506 210.32 44.5538 210.269C44.6218 209.057 45.1569 208.173 46.1591 207.619C46.2025 207.592 46.2621 207.521 46.331 207.415C46.4 207.308 46.4756 207.169 46.5492 207.013L47.5891 204.785C47.8203 204.295 48.352 203.457 49.1841 202.271C55.0095 193.968 58.5709 183.993 60.9648 174.229C61.4979 172.044 63.0838 170.422 62.1161 167.616C62.0552 167.437 61.9217 167.254 61.7156 167.067L59.234 164.826C58.8914 164.026 58.0884 162.521 56.8249 160.309C55.7223 158.389 54.8398 156.033 54.1773 153.243C53.3779 149.885 52.0795 146.594 51.4623 143.143C51.4367 142.999 51.3876 142.869 51.3231 142.773C51.2585 142.677 51.1825 142.621 51.1074 142.614C50.9513 142.593 50.7924 142.691 50.6309 142.908C47.8135 131.816 44.7974 120.571 43.746 109.114C43.0789 101.798 42.3897 94.4911 41.6785 87.1921C41.2709 83.0456 42.5473 75.472 47.0715 74.3466C54.2242 72.578 62.4828 82.7378 66.266 87.4491C67.6551 89.1791 69.3637 90.5546 71.392 91.5757C71.4827 91.6214 71.5822 91.6471 71.6836 91.651C71.7849 91.655 71.8858 91.6371 71.979 91.5987C72.0723 91.5603 72.1558 91.5022 72.2237 91.4285C72.2917 91.3547 72.3425 91.2671 72.3725 91.1717C73.3039 88.3029 73.7608 84.379 74.1631 82.3392C75.4511 75.8401 76.663 67.8294 79.1588 62.5771C82.0201 56.5508 83.5552 51.5836 88.7806 46.2018C93.2896 41.5578 97.9701 37.0933 102.822 32.8084C104.889 33.6377 116.172 22.1923 120.436 19.0247C124.706 15.8591 125.969 24.1578 126.044 26.762C126.053 27.0243 126.134 27.2525 126.271 27.4004C126.643 27.7971 127.127 27.9309 127.725 27.8018ZM88.388 118.887C93.2051 107.209 99.2268 97.0923 101.552 85.1068C102.363 80.9557 104.126 77.1041 104.916 72.8222C104.937 72.7103 104.927 72.5965 104.886 72.4964C104.845 72.3964 104.776 72.3152 104.687 72.2642C104.085 71.9176 103.698 72.2523 103.525 73.2681C103.046 76.0266 100.855 80.3333 99.8211 83.605C97.0399 92.4204 93.5472 100.412 89.5394 108.856C88.4059 111.245 87.2155 114.151 85.9681 117.573C83.9578 123.092 81.5262 128.419 78.6734 133.555C77.7142 135.279 77.6156 136.959 76.5141 138.766C75.4759 140.474 74.6541 142.291 74.0487 144.218C73.8421 144.877 74.0028 146.376 74.9904 144.859C76.8453 142.01 78.9145 137.235 81.2402 133.276C83.955 128.647 86.3376 123.851 88.388 118.887ZM120.465 122.044L118.979 123.754C118.939 123.799 118.906 123.85 118.882 123.904C118.859 123.957 118.845 124.012 118.842 124.063C118.839 124.114 118.847 124.161 118.865 124.2C118.884 124.239 118.912 124.269 118.948 124.288C119.145 124.389 119.348 124.409 119.558 124.348C120.905 123.943 121.796 123.315 122.231 122.463C123.858 119.274 125.954 116.433 128.518 113.942C129.231 113.24 128.882 112.464 128.016 113.312C125.696 115.571 123.479 117.923 121.365 120.37C121.084 120.694 120.893 121.063 120.792 121.479C120.751 121.653 120.642 121.841 120.465 122.044ZM55.08 99.0404C51.3066 110.604 55.8469 122.997 60.3238 133.582C61.3947 136.109 67.4325 151.565 68.0697 151.479C68.1046 151.475 68.1358 151.456 68.1613 151.423C68.1867 151.39 68.2058 151.344 68.2173 151.287C68.2288 151.231 68.2324 151.166 68.228 151.096C68.2235 151.027 68.2111 150.954 68.1915 150.883C66.1031 143.349 64.6273 138.498 63.7642 136.33C59.1336 124.703 54.3882 111.267 56.1731 99.212C56.3804 97.8418 55.3956 98.0832 55.08 99.0404ZM114.653 124.702C103.476 135.142 90.8682 143.401 76.8303 149.481C76.4648 149.639 76.3442 149.834 76.4684 150.066C76.5126 150.145 76.5937 150.204 76.697 150.23C76.8004 150.256 76.9191 150.248 77.0318 150.208C86.3713 146.873 94.9802 142.197 102.858 136.182C105.93 133.841 115.704 126.842 115.956 124.891C116.094 123.826 115.66 123.763 114.653 124.702ZM93.3718 151.181C93.4039 151.273 93.4662 151.338 93.5588 151.375C93.6134 151.399 93.6878 151.395 93.7714 151.363C93.8549 151.331 93.9434 151.272 94.0242 151.195C94.955 150.312 94.8117 150.145 93.5944 150.695C93.499 150.739 93.4228 150.814 93.3814 150.904C93.34 150.995 93.3366 151.094 93.3718 151.181ZM66.0941 156.971C65.4546 155.503 64.4592 154.32 63.1078 153.423C62.8227 153.237 62.75 153.343 62.8898 153.741C63.0216 154.124 64.8883 161.77 66.0506 159.019C66.1973 158.676 66.2768 158.316 66.2843 157.964C66.2918 157.611 66.2271 157.273 66.0941 156.971Z" fill="#181D31"/>
<path d="M59.2359 164.826C52.8447 159.473 51.9613 149.642 50.6329 142.909C50.7944 142.692 50.9532 142.594 51.1094 142.615C51.1844 142.621 51.2605 142.677 51.325 142.774C51.3896 142.87 51.4387 143 51.4642 143.143C52.0815 146.595 53.3799 149.886 54.1793 153.244C54.8418 156.034 55.7243 158.389 56.8269 160.31C58.0904 162.522 58.8934 164.027 59.2359 164.826Z" fill="#060A11"/>
<path d="M102.828 84.0268C100.497 96.0107 94.4899 106.132 89.6797 117.812C87.6322 122.776 85.2544 127.574 82.5462 132.204C80.2261 136.165 78.1603 140.941 76.3103 143.792C75.3253 145.31 75.1675 143.811 75.374 143.153C75.9792 141.226 76.7996 139.408 77.8352 137.699C78.9339 135.892 79.0344 134.212 79.9914 132.488C82.8376 127.349 85.2649 122.021 87.2733 116.502C88.5195 113.079 89.7083 110.173 90.8396 107.783C94.8399 99.3373 98.3271 91.3438 101.107 82.528C102.141 79.2562 104.327 74.9481 104.808 72.1902C104.981 71.1745 105.367 70.8394 105.966 71.185C106.054 71.2359 106.123 71.3169 106.163 71.4169C106.204 71.5168 106.214 71.6306 106.193 71.7425C105.401 76.0237 103.64 79.8763 102.828 84.0268Z" fill="#F1F0E8"/>
<path d="M121.203 120.91C121.305 120.494 121.495 120.124 121.776 119.8C123.883 117.352 126.092 114.997 128.404 112.736C129.267 111.887 129.614 112.662 128.903 113.365C126.347 115.859 124.258 118.701 122.634 121.891C122.2 122.743 121.313 123.372 119.971 123.779C119.763 123.84 119.561 123.821 119.365 123.72C119.329 123.701 119.301 123.671 119.283 123.632C119.264 123.593 119.256 123.547 119.259 123.495C119.262 123.444 119.276 123.389 119.3 123.336C119.323 123.282 119.356 123.231 119.396 123.186L120.877 121.475C121.054 121.272 121.162 121.084 121.203 120.91Z" fill="#293546"/>
<path d="M55.177 99.1956C55.4925 98.2383 56.4728 97.9956 56.2646 99.3656C54.4713 111.418 59.1749 124.842 63.7668 136.457C64.6227 138.624 66.0845 143.471 68.1522 150.999C68.1716 151.07 68.1839 151.142 68.1882 151.212C68.1926 151.281 68.1889 151.346 68.1773 151.403C68.1658 151.459 68.1467 151.505 68.1214 151.538C68.096 151.571 68.0649 151.59 68.0301 151.594C67.3959 151.681 61.409 136.24 60.3469 133.715C55.9065 123.141 51.4056 110.76 55.177 99.1956Z" fill="#F1F0E8"/>
<path d="M114.966 125.367C115.968 124.426 116.4 124.488 116.261 125.553C116.008 127.504 106.271 134.514 103.211 136.858C95.3628 142.882 86.789 147.568 77.4898 150.915C77.3776 150.955 77.2595 150.963 77.1567 150.937C77.0539 150.911 76.9732 150.853 76.9294 150.773C76.8061 150.542 76.9264 150.347 77.2903 150.189C91.269 144.092 103.827 135.818 114.966 125.367Z" fill="#D5DEDE"/>
<path d="M96.3094 151.486C97.5217 150.935 97.664 151.101 96.7365 151.985C96.656 152.062 96.5678 152.121 96.4846 152.154C96.4014 152.186 96.3274 152.19 96.2731 152.165C96.181 152.129 96.1191 152.064 96.0873 151.972C96.0523 151.885 96.0559 151.786 96.0972 151.696C96.1385 151.605 96.2145 151.53 96.3094 151.486Z" fill="#474F59"/>
<path d="M68.9327 157.798C69.0646 158.1 69.1286 158.438 69.1206 158.79C69.1127 159.143 69.033 159.502 68.8865 159.846C67.7259 162.596 65.8791 154.957 65.7485 154.574C65.6099 154.177 65.6823 154.071 65.9658 154.256C67.3094 155.151 68.2984 156.332 68.9327 157.798Z" fill="#293546"/>
</svg>
