<svg width="160" height="156" viewBox="0 0 160 156" fill="none" xmlns="http://www.w3.org/2000/svg">
<path d="M68.6617 35.7132C74.5361 34.3194 80.3432 31.4949 86.2996 34.4946C97.9443 40.3521 104.123 50.0424 104.836 63.5654C105.645 78.7608 102.689 93.7876 92.5885 104.815C77.8269 120.947 62.3327 122.721 41.8174 116.568C41.6314 116.513 41.4351 116.517 41.2567 116.578C41.0783 116.639 40.9268 116.754 40.824 116.907C34.4201 126.43 41.5099 131.635 50.5631 132.826C63.1325 134.463 75.3018 132.946 87.0708 128.273C93.1055 125.879 99.2549 121.865 105.299 118.372C119.491 110.16 129.708 91.3023 132.897 76.0262C137.21 55.3005 131.828 33.1316 112.871 21.0926C101.214 13.6882 88.9922 13.3479 76.204 20.0716C70.1653 23.2479 63.2112 26.2307 66.4711 34.5583C66.6357 34.9817 66.9487 35.3322 67.3517 35.5447C67.7548 35.7572 68.2204 35.817 68.6617 35.7132Z" stroke="#88B1E1" stroke-width="2"/>
<path d="M109.37 38.4833C109.431 38.6563 109.526 38.8154 109.65 38.951C109.774 39.0866 109.924 39.1957 110.09 39.2717C110.257 39.3476 110.437 39.3888 110.619 39.3926C110.801 39.3965 110.982 39.3629 111.15 39.2941C112.812 38.6137 107.659 33.6185 109.37 38.4833Z" stroke="#88B1E1" stroke-width="2"/>
<path d="M117.068 45.856C117.206 45.9336 117.358 45.9853 117.512 46.0077C117.665 46.03 117.818 46.0224 117.959 45.9854C118.1 45.9483 118.226 45.8828 118.328 45.7932C118.43 45.7037 118.505 45.5922 118.549 45.4667C118.863 44.5325 118.762 43.7009 118.247 42.972C118.194 42.8956 118.112 42.8405 118.007 42.8101C117.902 42.7797 117.776 42.7746 117.636 42.795C117.495 42.8155 117.344 42.8611 117.191 42.9291C117.037 42.9972 116.885 43.0864 116.742 43.1915C115.479 44.1341 115.588 45.0222 117.068 45.856Z" stroke="#88B1E1" stroke-width="2"/>
<path d="M41.8838 124.711C41.8469 124.95 41.7579 125.181 41.6168 125.405C41.5103 125.577 41.4483 125.765 41.4421 125.935C41.4359 126.106 41.4859 126.247 41.5829 126.333L46.0272 130.371C46.166 130.497 46.3482 130.592 46.561 130.648C46.7737 130.704 47.0118 130.72 47.2582 130.695C48.9373 130.553 49.8639 129.671 50.0378 128.047C50.0561 127.857 49.9767 127.654 49.8128 127.472C49.649 127.289 49.4107 127.139 49.1378 127.045L42.8021 124.868" stroke="#88B1E1" stroke-width="2"/>
<path d="M42.7997 124.87C42.3511 123.52 42.6441 122.367 43.6787 121.41C43.9932 121.109 43.95 121.024 43.5492 121.156C41.9091 121.68 41.3531 122.866 41.8814 124.713" stroke="#88B1E1" stroke-width="2"/>
<path d="M42.7992 124.87L41.8809 124.713" stroke="#88B1E1" stroke-width="2"/>
<path d="M121.686 58.0855C117.756 61.7946 131.38 57.9548 122.835 57.6665C122.399 57.6573 121.988 57.8073 121.686 58.0855Z" stroke="#88B1E1" stroke-width="2"/>
<path d="M68.6617 35.714C68.2204 35.8179 67.7548 35.758 67.3517 35.5455C66.9487 35.3331 66.6357 34.9825 66.4711 34.5592C63.2112 26.2315 70.1653 23.2488 76.204 20.0725C88.9922 13.3488 101.214 13.6891 112.871 21.0935C131.828 33.1324 137.21 55.3013 132.897 76.0271C129.708 91.3031 119.491 110.161 105.299 118.373C99.2549 121.866 93.1055 125.879 87.0708 128.274C75.3018 132.947 63.1325 134.464 50.5631 132.826C41.5099 131.636 34.4201 126.431 40.824 116.908C40.9268 116.755 41.0783 116.64 41.2567 116.579C41.4351 116.518 41.6314 116.514 41.8174 116.568C62.3327 122.721 77.8269 120.948 92.5885 104.815C102.689 93.7884 105.645 78.7616 104.836 63.5663C104.123 50.0433 97.9443 40.353 86.2996 34.4955C80.3432 31.4958 74.5361 34.3203 68.6617 35.714ZM109.371 38.4836C109.432 38.6566 109.527 38.8157 109.651 38.9513C109.775 39.0869 109.925 39.196 110.091 39.272C110.258 39.3479 110.438 39.3891 110.62 39.3929C110.803 39.3968 110.983 39.3632 111.151 39.2944C112.813 38.614 107.66 33.6188 109.371 38.4836ZM117.067 45.8571C117.206 45.9347 117.357 45.9865 117.511 46.0088C117.665 46.0312 117.817 46.0236 117.958 45.9865C118.099 45.9495 118.225 45.8839 118.327 45.7944C118.429 45.7048 118.504 45.5934 118.548 45.4679C118.862 44.5336 118.761 43.702 118.246 42.9732C118.193 42.8967 118.111 42.8416 118.006 42.8112C117.901 42.7809 117.775 42.7757 117.635 42.7962C117.495 42.8166 117.343 42.8622 117.19 42.9303C117.036 42.9984 116.884 43.0876 116.741 43.1926C115.478 44.1352 115.587 45.0234 117.067 45.8571ZM41.882 124.713C41.8451 124.952 41.7561 125.183 41.615 125.406C41.5085 125.578 41.4465 125.767 41.4403 125.937C41.4341 126.107 41.4841 126.248 41.5811 126.334L46.0254 130.373C46.1642 130.499 46.3464 130.593 46.5592 130.649C46.7719 130.705 47.01 130.721 47.2564 130.697C48.9355 130.555 49.8621 129.672 50.036 128.049C50.0543 127.859 49.9749 127.656 49.811 127.473C49.6472 127.291 49.4089 127.14 49.136 127.046L42.8003 124.87C42.3518 123.52 42.6447 122.366 43.6793 121.409C43.9938 121.108 43.9507 121.024 43.5499 121.156C41.9097 121.68 41.3537 122.866 41.882 124.713ZM121.684 58.0867C117.754 61.7958 131.378 57.956 122.833 57.6678C122.397 57.6585 121.986 57.8085 121.684 58.0867Z" fill="#88B1E1"/>
<path d="M109.37 38.4844C107.659 33.6195 112.812 38.6148 111.15 39.2952C110.982 39.364 110.801 39.3976 110.619 39.3937C110.437 39.3899 110.257 39.3487 110.09 39.2728C109.924 39.1968 109.774 39.0877 109.65 38.9521C109.526 38.8165 109.431 38.6574 109.37 38.4844Z" fill="#F7FAFF"/>
<path d="M117.068 45.856C115.588 45.0222 115.479 44.1341 116.742 43.1915C116.885 43.0864 117.037 42.9972 117.191 42.9291C117.344 42.8611 117.495 42.8155 117.636 42.795C117.776 42.7746 117.902 42.7797 118.007 42.8101C118.112 42.8405 118.194 42.8956 118.247 42.972C118.762 43.7009 118.863 44.5325 118.549 45.4667C118.505 45.5922 118.43 45.7037 118.328 45.7932C118.226 45.8828 118.1 45.9483 117.959 45.9854C117.818 46.0224 117.665 46.03 117.512 46.0077C117.358 45.9853 117.206 45.9336 117.068 45.856Z" fill="#FCFDFF"/>
<path d="M42.7997 124.87L41.8814 124.713C41.3531 122.866 41.9091 121.68 43.5492 121.156C43.95 121.024 43.9932 121.109 43.6787 121.41C42.6441 122.367 42.3511 123.52 42.7997 124.87Z" fill="#88B1E1"/>
<path d="M41.8799 124.715L42.7982 124.871L49.1339 127.048C49.4068 127.142 49.6451 127.293 49.8089 127.475C49.9727 127.657 50.0522 127.861 50.0339 128.05C49.86 129.674 48.9334 130.556 47.2543 130.698C47.0079 130.723 46.7698 130.707 46.5571 130.651C46.3443 130.595 46.1621 130.5 46.0233 130.374L41.579 126.336C41.4819 126.25 41.432 126.109 41.4382 125.938C41.4444 125.768 41.5064 125.58 41.6129 125.408C41.754 125.185 41.843 124.953 41.8799 124.715Z" fill="white"/>
<path d="M99.3955 40.7314L100.314 40.8879L106.65 43.0647C106.922 43.1585 107.161 43.3093 107.325 43.4917C107.488 43.6742 107.568 43.8773 107.55 44.0671C107.376 45.6905 106.449 46.5731 104.77 46.7149C104.523 46.7397 104.285 46.7236 104.073 46.6675C103.86 46.6115 103.678 46.5171 103.539 46.3908L99.0946 42.3528C98.9976 42.2665 98.9476 42.1255 98.9538 41.9552C98.96 41.7849 99.022 41.5967 99.1285 41.4246C99.2696 41.2013 99.3586 40.9702 99.3955 40.7314Z" fill="white"/>
<path d="M122.835 57.6665C131.38 57.9548 117.756 61.7946 121.686 58.0855C121.988 57.8073 122.399 57.6573 122.835 57.6665Z" fill="#FDFEFF"/>
</svg>
