<svg width="133" height="143" viewBox="0 0 133 143" fill="none" xmlns="http://www.w3.org/2000/svg">
<path d="M13.7183 84.9062C11.8464 81.6649 14.7296 77.7072 18.4178 78.4554L123.906 99.8547C127.145 100.512 128.462 104.389 126.303 106.911L106.932 129.543C106.009 130.622 104.621 131.192 103.211 131.073L39.4144 125.69C38.0016 125.571 36.7421 124.774 36.0378 123.555L13.7183 84.9062Z" fill="#FFB94F"/>
<path d="M86.8106 59.1112C89.0018 48.8645 103.513 48.3047 106.284 58.36L114.783 89.2067C115.645 92.336 112.862 95.2973 109.664 94.6527L84.7387 89.6275C82.3808 89.1521 80.8767 86.8601 81.3795 84.5086L86.8106 59.1112Z" fill="#FFB94F"/>
<path d="M91.7103 24.684C92.6293 20.3148 87.151 17.6154 84.1809 20.974L37.867 73.3436C35.6393 75.8625 36.9578 79.8146 40.2422 80.463L74.1329 87.1539C76.4874 87.6188 78.793 86.0937 79.2871 83.7444L91.7103 24.684Z" fill="#FFB94F"/>
</svg>
