<svg width="677" height="201" viewBox="0 0 677 201" fill="none" xmlns="http://www.w3.org/2000/svg">
<path d="M82.8782 150.106C85.3562 151.432 87.6943 152.957 89.8927 154.681L89.9743 154.631C88.0703 155.811 85.9993 157.207 83.7613 158.82C81.4896 160.379 79.0792 161.835 76.5301 163.189L76.4485 163.24C75.129 162.326 73.5218 161.251 71.627 160.016C69.7321 158.781 67.705 157.515 65.5458 156.218C63.3865 154.921 61.1626 153.702 58.8739 152.56C56.5851 151.419 54.4313 150.495 52.4123 149.788L52.0974 149.645C52.7096 150.997 53.5889 152.598 54.7353 154.447C55.8479 156.243 57.0383 158.103 58.3065 160.027C59.5953 161.864 60.8336 163.619 62.0213 165.292C63.209 166.965 64.1503 168.302 64.8453 169.302C64.1566 170.256 63.0843 171.259 61.6286 172.312C60.2272 173.331 58.7922 174.296 57.3234 175.206C55.8883 176.171 54.5556 176.997 53.3251 177.684C52.149 178.338 51.4418 178.776 51.2035 178.999C51.3123 178.932 50.9387 178.147 50.0828 176.644C49.1932 175.087 47.9898 173.085 46.4725 170.637C44.9553 168.189 43.219 165.388 41.2635 162.232C39.2742 159.023 37.2072 155.749 35.0625 152.41C32.9384 148.982 30.7936 145.643 28.6281 142.392C26.4834 139.053 24.524 136.014 22.7501 133.273C20.9425 130.478 19.3774 128.135 18.0548 126.244C16.753 124.265 15.8285 122.956 15.2814 122.316C18.058 119.993 21.1506 117.511 24.5594 114.871C27.9681 112.232 31.7929 109.899 36.0337 107.873C39.3444 106.047 42.8007 105.184 46.4027 105.286C50.0046 105.388 53.2882 106.252 56.2535 107.877C59.2188 109.503 61.6727 111.822 63.6152 114.835C65.5784 117.759 66.5934 121.159 66.6602 125.033C66.8404 127.632 66.4647 130.123 65.5331 132.508C64.6559 134.859 62.9623 136.925 60.4523 138.706L60.1259 138.909L60.0443 138.959L60.0949 139.041C62.4848 140.345 64.9834 141.583 67.5909 142.753C70.1646 143.868 72.728 145.028 75.2811 146.231C77.8341 147.435 80.3665 148.726 82.8782 150.106ZM39.1467 121.642C37.3309 122.843 35.707 124.414 34.275 126.356C34.7678 127.029 35.3007 127.829 35.8739 128.753C36.4677 129.59 37.0512 130.471 37.6244 131.395C38.1975 132.32 38.7539 133.218 39.2933 134.088C39.8872 134.925 40.4239 135.609 40.9036 136.14L40.9852 136.089C42.3038 135.422 43.7143 134.661 45.2168 133.805C46.7193 132.949 48.0559 132.008 49.2266 130.981C50.1254 130.123 50.5938 129.117 50.6321 127.964C50.691 126.723 50.4715 125.579 49.9734 124.532C49.4416 123.431 48.709 122.492 47.7758 121.715C46.8088 120.884 45.759 120.405 44.6266 120.279C42.7555 119.933 40.9289 120.387 39.1467 121.642Z" fill="#0F3056"/>
<path d="M95.6179 80.6319C97.9881 81.1172 100.097 81.9429 101.944 83.1091C104.161 84.4514 106.19 85.9918 108.03 87.7304C109.9 89.3835 111.654 91.2356 113.29 93.2867C114.026 94.068 114.646 94.9053 115.151 95.7984C115.685 96.606 116.205 97.4564 116.71 98.3495C117.909 101.111 119.122 103.902 120.349 106.721C121.605 109.455 122.618 112.271 123.386 115.171C123.414 115.229 123.399 115.272 123.341 115.3C123.341 115.3 123.355 115.328 123.383 115.386C123.881 119.342 123.864 123.334 123.331 127.364C122.856 131.366 122.181 135.251 121.308 139.019C117.564 140.98 113.778 142.926 109.948 144.857C106.091 146.73 102.349 148.547 98.7224 150.309C98.7224 150.309 98.7076 150.352 98.678 150.437C95.8359 146.197 93.1541 141.701 90.6327 136.949C88.0834 132.139 85.5924 127.23 83.1599 122.222C80.7273 117.213 78.3096 112.162 75.9066 107.068C73.5333 101.888 71.0728 96.822 68.5251 91.8694C68.5547 91.7839 68.5555 91.7123 68.5276 91.6548C68.5572 91.5692 68.5868 91.4837 68.6164 91.3982C70.0326 90.2123 71.5763 89.1424 73.2474 88.1884C74.9482 87.1489 76.7049 86.2246 78.5175 85.4154C80.3021 84.5486 82.072 83.7246 83.827 82.9434C85.6396 82.1342 87.3667 81.2954 89.0083 80.4269C91.0742 79.9928 93.2774 80.0611 95.6179 80.6319ZM108.77 120.456C108.979 119.714 109.13 119 109.224 118.314C109.475 116.342 109.369 114.366 108.906 112.385C108.499 110.377 107.549 108.42 106.054 106.513C105.462 105.734 104.827 104.939 104.149 104.13C103.443 103.263 102.651 102.51 101.771 101.87C100.948 101.202 100.067 100.705 99.1258 100.38C98.157 99.9964 97.0994 99.8697 95.953 99.9996C94.9184 100.36 93.8254 100.819 92.674 101.379C91.4947 101.88 90.4428 102.498 89.5184 103.231L89.3457 103.315L89.2593 103.357L89.4271 103.703C90.2972 105.201 91.1656 106.843 92.0324 108.627C92.8991 110.412 93.7791 112.297 94.6721 114.282C95.5373 116.21 96.4591 118.181 97.4377 120.196C98.3884 122.154 99.3966 124.083 100.462 125.984C101.375 126.253 102.365 126.092 103.43 125.503C104.554 124.887 105.606 124.269 106.586 123.651C106.902 123.568 107.147 123.414 107.321 123.187C107.468 122.902 107.657 122.633 107.889 122.378C108.297 121.753 108.59 121.112 108.77 120.456Z" fill="#0F3056"/>
<path d="M153.644 55.3675C154.783 54.9435 155.897 54.6319 156.983 54.4325C157.949 60.1504 158.781 65.7818 159.478 71.3267C160.235 76.8494 160.921 82.3643 161.536 87.8715C162.15 93.3788 162.746 98.9272 163.323 104.517C163.878 110.046 164.406 115.688 164.908 121.442C164.428 121.621 163.7 121.96 162.725 122.459C161.75 122.958 160.633 123.442 159.373 123.911C158.054 124.402 156.682 124.844 155.257 125.237C153.915 125.668 152.709 125.912 151.637 125.969C145.323 117.256 139.4 108.124 133.867 98.5739C128.312 88.9638 123.184 79.1263 118.484 69.0614L118.45 68.9714C118.654 68.4177 119.322 67.8277 120.455 67.2014C121.588 66.5752 122.844 66.0055 124.224 65.4922C125.581 64.919 126.901 64.4281 128.183 64.0195C129.465 63.6109 130.368 63.3773 130.892 63.3188C131.579 64.4292 132.454 66.3229 133.518 68.9999C134.582 71.6769 135.937 74.8602 137.583 78.55C139.228 82.2397 141.169 86.2636 143.405 90.6215C145.7 94.9572 148.352 99.3312 151.359 103.744C150.691 98.461 149.97 93.6763 149.194 89.3896C148.397 85.0429 147.632 81.0596 146.9 77.4397C146.168 73.8198 145.506 70.4809 144.915 67.4232C144.324 64.3654 143.89 61.4542 143.612 58.6894C143.568 58.5694 143.605 58.4871 143.725 58.4425C144.834 58.3031 145.94 58.0626 147.042 57.7209C148.122 57.3192 149.201 56.9176 150.281 56.5159C151.421 56.092 152.542 55.7092 153.644 55.3675Z" fill="#0F3056"/>
<path d="M198.24 56.6025C196.866 50.9428 195.773 45.2151 194.959 39.4196L207.715 36.6206C208.334 39.1706 209.05 42.2568 209.863 45.8792C210.676 49.5016 211.549 53.3727 212.483 57.4927C213.417 61.6127 214.389 65.8881 215.398 70.319C216.47 74.7349 217.504 78.9952 218.5 83.1001C219.496 87.205 220.463 91.0535 221.4 94.6457C222.323 98.1758 223.148 101.17 223.876 103.627C223.656 104.076 222.924 104.451 221.68 104.753C220.451 105.117 219.083 105.449 217.575 105.749C216.144 106.096 214.768 106.397 213.447 106.652C212.126 106.907 211.263 107.149 210.858 107.379C209.935 101.676 208.724 96.0095 207.227 90.3799C205.791 84.7352 204.293 79.1057 202.733 73.4912C201.173 67.8768 199.675 62.2472 198.24 56.6025Z" fill="#0F3056"/>
<path d="M245.087 75.6724C243.688 75.8447 242.662 75.9213 242.01 75.9021L242.299 77.6057C242.683 79.488 243.008 81.0232 243.275 82.2114C243.604 83.3889 244.212 84.4867 245.099 85.5048C246.102 86.8276 247.357 87.7184 248.863 88.1771C250.369 88.6357 251.763 88.6265 253.045 88.1494C254.327 87.6723 255.303 86.7279 255.973 85.3161C256.694 83.8305 256.773 81.8048 256.208 79.2392C256.85 79.1953 257.707 79.0824 258.779 78.9004C259.841 78.6554 260.935 78.4051 262.06 78.1494C263.248 77.8829 264.384 77.6903 265.467 77.5715C266.54 77.3896 267.44 77.3344 268.166 77.406C268.318 79.068 268.464 80.6984 268.606 82.2973C268.747 83.8962 268.841 85.4058 268.887 86.8261C268.922 88.1832 268.868 89.3934 268.724 90.4565C268.632 91.4458 268.397 92.1672 268.02 92.6207C267.204 94.3169 265.997 95.625 264.401 96.545C262.804 97.4649 261.007 98.1591 259.009 98.6278C257.011 99.0964 254.929 99.4495 252.762 99.6871C250.659 99.9141 248.723 100.177 246.957 100.477C245.147 100.524 243.41 100.235 241.746 99.6079C239.839 98.698 238.157 97.3928 236.7 95.6925C235.233 93.929 233.959 91.9703 232.88 89.8165C231.79 87.5995 230.899 85.2189 230.208 82.6747C229.517 80.1304 229.015 77.554 228.703 74.9456C228.496 72.5788 228.306 70.3067 228.131 68.1292C228.009 65.8779 228.15 63.647 228.554 61.4363C229.064 59.4673 230.064 57.7074 231.553 56.1565C233.032 54.5425 234.791 53.238 236.829 52.2432C238.857 51.1853 241.064 50.4215 243.451 49.9518C245.839 49.482 248.216 49.3385 250.584 49.5212C253.572 49.5337 256.078 50.1474 258.102 51.3621C260.125 52.5769 261.761 54.1821 263.008 56.1776C264.318 58.1625 265.287 60.4324 265.915 62.9873C266.543 65.5423 266.987 68.1609 267.248 70.8432C266.827 71.0443 265.997 71.3149 264.756 71.6552C263.579 71.9847 262.149 72.357 260.467 72.7721C258.847 73.1765 257.097 73.5708 255.214 73.9549C253.332 74.339 251.508 74.6809 249.741 74.9805C248.037 75.2694 246.486 75.5001 245.087 75.6724ZM254.058 61.3954C253.235 60.3667 252.207 59.6646 250.975 59.2893C250.416 59.0595 249.874 58.9242 249.348 58.8836C248.811 58.7799 248.196 58.7869 247.501 58.9046C245.987 59.1615 244.783 59.5279 243.89 60.0039C242.997 60.4799 242.315 61.05 241.844 61.7142C241.372 62.3784 241.043 63.1158 240.856 63.9265C240.732 64.7265 240.676 65.5474 240.689 66.3891C240.68 67.1045 240.703 67.62 240.756 67.9355C240.862 68.1772 241.21 68.313 241.799 68.3429C242.378 68.3097 243.267 68.1914 244.465 67.9881C245.717 67.711 247.541 67.3691 249.939 66.9625C251.58 66.6843 252.815 66.5072 253.646 66.4312C254.477 66.3552 255.051 66.2904 255.366 66.2369C255.734 66.1096 255.907 65.9828 255.886 65.8566C255.854 65.6674 255.795 65.3203 255.709 64.8155C255.495 63.5535 254.945 62.4135 254.058 61.3954Z" fill="#0F3056"/>
<path d="M346.091 90.5844C346.092 90.6484 345.965 90.6833 345.709 90.6892L309.25 92.0095L304.931 92.109C304.866 92.0465 304.831 91.9512 304.829 91.8233C304.97 89.6434 304.985 87.4985 304.872 85.3886C304.824 83.2771 304.84 81.2282 304.923 79.2418C305.004 77.1914 305.214 75.234 305.556 73.3696C305.959 71.4398 306.654 69.6313 307.639 67.9442C309.135 66.1813 310.701 64.6728 312.336 63.4188C314.034 62.0993 315.735 60.8758 317.437 59.7483C319.203 58.6193 320.939 57.523 322.643 56.4595C324.411 55.3945 326.111 54.171 327.743 52.789C329.004 51.9278 329.873 50.7554 330.351 49.272C330.893 47.7872 331.083 46.3104 330.921 44.8417C330.759 43.3731 330.218 42.1052 329.297 41.0381C328.439 39.9056 327.272 39.2603 325.796 39.1023C324.26 39.1377 323.021 39.5503 322.079 40.3402C321.201 41.1287 320.52 42.1366 320.036 43.3641C319.615 44.5261 319.324 45.7811 319.163 47.1292C319.066 48.4758 318.999 49.7257 318.961 50.8788L318.966 51.0708L318.87 51.073C315.998 51.4593 313.444 51.7422 311.207 51.9217C309.035 52.0998 306.858 52.086 304.676 51.8802L304.58 51.8824L304.576 51.6904C303.706 47.2933 303.611 43.1664 304.291 39.3097C305.033 35.3876 306.557 32.0876 308.864 29.4097C310.105 27.7167 311.899 26.395 314.246 25.4447C316.593 24.4944 319.107 23.8603 321.788 23.5425C324.469 23.2246 327.094 23.1962 329.66 23.4571C332.289 23.6526 334.476 24.0823 336.22 24.7463C339.133 26.1516 341.39 28.2762 342.992 31.12C344.594 33.9639 345.595 37.1096 345.994 40.5574C346.089 41.8995 346.187 43.3697 346.288 44.9678C346.388 46.5019 346.42 47.9095 346.385 49.1906C346.248 51.5624 345.687 53.5919 344.701 55.279C343.778 56.9007 342.595 58.3364 341.152 59.586C339.772 60.8341 338.197 61.9267 336.426 62.8637C334.719 63.7993 332.98 64.7356 331.209 65.6726C329.502 66.6082 327.829 67.607 326.189 68.6691C324.611 69.6657 323.263 70.8811 322.144 72.3152C322.023 72.6381 321.842 73.0904 321.599 73.6721C321.42 74.2524 321.241 74.8327 321.063 75.4129C320.948 75.9917 320.865 76.5378 320.812 77.0511C320.823 77.499 320.957 77.784 321.216 77.9061C325.506 77.9352 329.473 77.8438 333.117 77.6318C336.825 77.4184 340.759 77.2637 344.918 77.1679C345.459 78.4357 345.749 79.9015 345.787 81.565C345.824 83.1646 345.829 84.7649 345.802 86.366C345.818 87.0698 345.802 87.7743 345.754 88.4796C345.771 89.1834 345.883 89.885 346.091 90.5844Z" fill="#0F3056"/>
<path d="M397.9 94.0784C397.894 94.1422 397.764 94.164 397.509 94.1439L361.104 91.7538L356.798 91.4142C356.739 91.3453 356.715 91.2471 356.725 91.1195C357.087 88.9653 357.32 86.833 357.422 84.7225C357.588 82.617 357.813 80.5804 358.096 78.6126C358.385 76.581 358.794 74.6552 359.322 72.8352C359.92 70.9563 360.795 69.2278 361.946 67.6494C363.614 66.0476 365.324 64.7059 367.079 63.6245C368.902 62.4844 370.718 61.4399 372.526 60.4912C374.398 59.5474 376.236 58.6331 378.039 57.7482C379.906 56.8682 381.722 55.8238 383.486 54.6148C384.828 53.886 385.811 52.808 386.437 51.3809C387.127 49.9587 387.466 48.5089 387.455 47.0314C387.443 45.5539 387.033 44.2376 386.225 43.0825C385.487 41.8686 384.391 41.1081 382.939 40.801C381.407 40.6802 380.133 40.9649 379.116 41.655C378.162 42.3502 377.382 43.2837 376.776 44.4557C376.239 45.5689 375.822 46.7879 375.525 48.1126C375.291 49.4424 375.098 50.679 374.943 51.8224L374.928 52.0138L374.832 52.0063C371.936 52.0988 369.366 52.1208 367.123 52.0723C364.944 52.0288 362.78 51.7939 360.631 51.3675L360.535 51.36L360.55 51.1686C360.132 46.7059 360.456 42.5907 361.524 38.8229C362.66 34.9964 364.512 31.8684 367.079 29.4387C368.486 27.8805 370.405 26.7479 372.836 26.0409C375.267 25.3338 377.833 24.9584 380.532 24.9146C383.232 24.8707 385.845 25.109 388.372 25.6293C390.968 26.0908 393.1 26.7404 394.767 27.5781C397.522 29.272 399.552 31.6149 400.857 34.6068C402.162 37.5986 402.838 40.8298 402.885 44.3003C402.843 45.6451 402.791 47.1176 402.729 48.7177C402.672 50.254 402.562 51.6576 402.397 52.9286C402.02 55.2742 401.255 57.2361 400.103 58.8145C399.02 60.334 397.697 61.642 396.134 62.7385C394.635 63.8401 392.957 64.767 391.1 65.5193C389.307 66.2766 387.482 67.0315 385.625 67.7838C383.832 68.5411 382.066 69.3648 380.326 70.2548C378.656 71.086 377.191 72.1581 375.932 73.4712C375.779 73.7801 375.553 74.2116 375.252 74.7657C375.015 75.3248 374.779 75.884 374.542 76.4431C374.369 77.0072 374.231 77.542 374.126 78.0474C374.091 78.494 374.196 78.7912 374.441 78.9389C378.706 79.4037 382.662 79.7157 386.308 79.8749C390.019 80.0392 393.948 80.2849 398.095 80.612C398.505 81.9283 398.644 83.4159 398.513 85.0748C398.388 86.6698 398.23 88.2623 398.04 89.8524C397.985 90.5542 397.898 91.2535 397.778 91.9503C397.723 92.6521 397.763 93.3615 397.9 94.0784Z" fill="#0F3056"/>
<path d="M470.96 39.4868L471.11 38.8318L484.814 41.7797C483.343 47.6147 482.046 53.555 480.921 59.6006C479.796 65.6462 478.477 71.68 476.964 77.7021C476.252 80.231 475.522 82.9853 474.772 85.9652C474.037 88.8827 473.042 91.6421 471.789 94.2436C470.598 96.8595 468.996 99.1184 466.983 101.02C465.033 102.937 462.502 104.096 459.389 104.498C456.469 105.207 453.434 105.265 450.287 104.674C447.125 104.146 444.212 103.248 441.548 101.98C439.163 100.644 437.419 98.7994 436.318 96.4454C435.216 94.0914 434.554 91.5426 434.33 88.799C434.12 85.993 434.212 83.1578 434.607 80.2935C435.078 77.3812 435.648 74.7541 436.317 72.4124C437.171 72.4113 438.198 72.5156 439.397 72.7252C440.659 72.9492 441.945 73.2114 443.255 73.5121C444.565 73.8127 445.861 74.1757 447.142 74.601C448.486 75.0407 449.697 75.483 450.777 75.9278L450.756 76.0214L450.648 76.4892C450.496 77.4392 450.339 78.5523 450.178 79.8285C450.093 81.0566 450.14 82.2822 450.319 83.5052C450.512 84.6659 450.866 85.6992 451.38 86.6052C451.895 87.5112 452.706 88.1242 453.815 88.4443C454.707 88.8462 455.533 88.9699 456.29 88.8155C457.048 88.661 457.717 88.322 458.297 87.7985C458.953 87.2268 459.499 86.5642 459.935 85.8105C460.385 84.9945 460.748 84.1258 461.025 83.2044C462.504 76.1894 464.025 68.9872 465.59 61.5979C467.217 54.223 469.007 46.8526 470.96 39.4868Z" fill="#0F3056"/>
<path d="M503.911 116.292C504.194 115.644 504.446 114.885 504.668 114.014C504.303 114.095 503.838 114.177 503.271 114.258C502.765 114.36 502.32 114.482 501.936 114.624C500.358 115.112 498.689 115.367 496.928 115.389C495.167 115.411 493.426 115.17 491.705 114.666C490.045 114.182 488.496 113.466 487.058 112.516C485.62 111.567 484.445 110.333 483.533 108.816C483.107 108.068 482.994 106.783 483.194 104.961C483.475 103.099 483.959 100.933 484.644 98.4631C485.39 96.0134 486.237 93.3612 487.185 90.5065C488.214 87.6112 489.243 84.7159 490.272 81.8206C491.321 78.8646 492.33 76.0301 493.298 73.317C494.266 70.6039 495.033 68.1947 495.597 66.0892C497.824 66.4915 499.747 66.9952 501.367 67.6006C503.067 68.1653 504.981 68.8007 507.106 69.5066C506.764 70.9439 506.3 72.5433 505.715 74.3047C505.13 76.0662 504.495 77.8782 503.809 79.741C503.184 81.6239 502.558 83.5068 501.933 85.3897C501.369 87.2927 500.875 89.0844 500.452 90.7647C500.27 91.5137 500.059 92.3539 499.817 93.2851C499.595 94.1556 499.404 95.0362 499.243 95.9269C499.143 96.8377 499.104 97.6676 499.125 98.4164C499.207 99.1853 499.43 99.8327 499.795 100.359C499.835 100.439 499.886 100.49 499.947 100.51C500.007 100.53 500.058 100.581 500.099 100.662C500.504 101.066 501.132 101.511 501.982 101.995C502.914 102.44 503.875 102.691 504.867 102.751C505.879 102.75 506.881 102.476 507.872 101.928C508.883 101.32 509.722 100.216 510.388 98.6161C511.195 96.5913 511.911 94.5363 512.536 92.451C513.161 90.3657 513.746 88.3007 514.29 86.256C514.915 84.1707 515.53 82.1158 516.135 80.0913C516.8 78.0869 517.618 76.133 518.587 74.2294L518.708 73.865C519.841 73.9042 520.783 74.0144 521.532 74.1957C522.342 74.3972 523.131 74.6594 523.901 74.9824C524.69 75.2446 525.561 75.5674 526.512 75.9509C527.464 76.3343 528.689 76.7073 530.187 77.0699C527.706 84.5408 525.286 92.0318 522.927 99.543C520.628 107.074 518.026 114.808 515.121 122.745C514.412 122.442 513.815 122.21 513.329 122.049C512.863 121.827 512.417 121.645 511.992 121.504C511.567 121.363 511.101 121.242 510.595 121.141C510.109 120.98 509.492 120.809 508.743 120.627C508.5 120.547 508.055 120.466 507.407 120.386C506.779 120.245 506.152 120.104 505.524 119.963C504.897 119.822 504.35 119.641 503.884 119.419C503.398 119.257 503.186 119.085 503.246 118.903C503.468 117.83 503.689 116.96 503.911 116.292Z" fill="#0F3056"/>
<path d="M550.566 85.3116C551.902 85.9326 553.529 86.6044 555.446 87.327L556.954 87.95L556.845 88.2162C553.829 95.3494 550.664 102.594 547.35 109.949C544.094 117.33 541.195 124.684 538.653 132.013C538.211 132.245 537.398 132.117 536.215 131.629C535.008 131.199 533.706 130.662 532.311 130.016C530.95 129.455 529.661 128.888 528.443 128.315C527.226 127.743 526.385 127.431 525.922 127.378C527.757 123.773 529.439 120.036 530.968 116.167C532.556 112.322 534.072 108.482 535.518 104.648C536.963 100.813 538.443 97.0617 539.957 93.3941C541.496 89.6674 543.164 86.1323 544.96 82.7888L544.997 82.7001C545.258 82.7387 545.643 82.8975 546.151 83.1765C546.718 83.4799 547.149 83.6927 547.445 83.8149C548.189 84.1916 549.23 84.6905 550.566 85.3116ZM549.751 70.434C550.415 68.4923 551.338 66.173 552.521 63.4764L564.478 68.7263C564.332 69.0812 564.063 69.7319 563.672 70.6784C563.365 71.5901 562.979 72.6079 562.515 73.7318C562.134 74.821 561.7 75.9572 561.211 77.1403C560.806 78.2886 560.42 79.3065 560.054 80.1938C559.671 80.451 559.011 80.4555 558.075 80.2074C557.198 79.9836 556.168 79.6275 554.985 79.1389C553.885 78.6156 552.697 78.0556 551.42 77.459C550.167 76.8032 548.967 76.2728 547.819 75.8678C548.527 74.1524 549.171 72.3411 549.751 70.434Z" fill="#0F3056"/>
<path d="M580.11 101.899C579.795 102.529 579.467 103.26 579.124 104.09C579.496 104.061 579.94 104.032 580.455 104.003C581.028 104.002 581.514 103.959 581.915 103.873C583.546 103.613 585.235 103.597 586.981 103.825C588.727 104.052 590.387 104.523 591.962 105.237C593.594 105.979 595.055 106.922 596.344 108.066C597.633 109.21 598.622 110.597 599.31 112.228C599.626 113.029 599.513 114.331 598.971 116.135C598.514 117.91 597.744 119.957 596.658 122.276C595.63 124.624 594.402 127.159 592.973 129.879C591.631 132.571 590.231 135.305 588.774 138.083C587.345 140.804 585.96 143.438 584.617 145.987C583.274 148.535 582.174 150.812 581.318 152.816C579.17 152.103 577.309 151.317 575.734 150.46C574.188 149.689 572.412 148.803 570.408 147.804C570.95 146.429 571.636 144.912 572.464 143.251C573.293 141.59 574.15 139.872 575.035 138.096C575.978 136.35 576.864 134.574 577.692 132.77C578.578 130.995 579.349 129.305 580.006 127.702C580.291 126.986 580.605 126.213 580.948 125.383C581.319 124.495 581.619 123.607 581.847 122.72C582.132 121.861 582.289 121.045 582.317 120.272C582.402 119.528 582.301 118.87 582.014 118.298C581.986 118.212 581.943 118.155 581.885 118.126C581.828 118.098 581.785 118.04 581.756 117.955C581.413 117.497 580.811 116.982 579.952 116.411C579.178 115.81 578.291 115.439 577.289 115.297C576.316 115.098 575.285 115.227 574.198 115.686C573.14 116.088 572.167 117.034 571.281 118.523C570.167 120.47 569.153 122.432 568.239 124.407C567.353 126.326 566.454 128.273 565.54 130.249C564.712 132.196 563.826 134.114 562.883 136.004C561.941 137.894 560.884 139.727 559.712 141.503L559.54 141.846C558.424 141.647 557.479 141.39 556.706 141.076C555.99 140.791 555.274 140.434 554.558 140.005C553.814 139.634 552.998 139.191 552.11 138.676C551.222 138.162 550.063 137.619 548.631 137.048C552.145 130.004 555.572 122.917 558.914 115.787C562.313 108.685 566.013 101.412 570.013 93.9665C570.672 94.3666 571.216 94.7096 571.645 94.9954C572.103 95.2239 572.533 95.4381 572.934 95.6381C573.335 95.8381 573.764 96.0523 574.222 96.2809C574.709 96.4521 575.31 96.6805 576.026 96.966C576.255 97.0803 576.671 97.2516 577.272 97.48C577.902 97.6512 578.517 97.8509 579.118 98.0793C579.72 98.3077 580.235 98.5648 580.665 98.8506C581.123 99.0792 581.309 99.2793 581.224 99.4511C580.852 100.482 580.481 101.298 580.11 101.899Z" fill="#0F3056"/>
<path d="M619.739 176.317L619.579 176.211L613.514 172.33C613.354 172.224 613.503 171.824 613.961 171.129C614.418 170.434 614.991 169.624 615.678 168.697C616.401 167.717 617.168 166.728 617.979 165.729C618.79 164.731 619.442 163.858 619.935 163.109L619.988 163.029C620.805 163.185 621.633 163.5 622.469 163.975C623.306 164.449 624.134 164.995 624.954 165.612C625.828 166.264 626.656 166.926 627.441 167.596C628.261 168.213 629.072 168.785 629.873 169.314C628.834 170.775 627.724 172.343 626.543 174.018C625.398 175.639 624.315 177.225 623.294 178.774L622.733 178.404C622.091 177.982 621.557 177.63 621.129 177.348C620.791 177.048 620.327 176.704 619.739 176.317ZM642.772 126.537C645.185 122.992 647.696 119.473 650.304 115.98L650.545 116.138C652.005 116.947 653.713 117.843 655.671 118.827C657.683 119.845 659.295 121.062 660.51 122.475C655.895 129.245 651.122 136.255 646.191 143.506C641.348 150.739 636.833 157.881 632.646 164.932C631.151 164.177 629.397 163.174 627.384 161.925C625.407 160.622 623.626 159.486 622.041 158.519L621.961 158.466C624.339 154.974 626.663 151.447 628.934 147.885C631.258 144.358 633.556 140.813 635.826 137.251C638.097 133.689 640.413 130.117 642.772 126.537Z" fill="#0F3056"/>
</svg>
