<svg width="64" height="63" viewBox="0 0 64 63" fill="none" xmlns="http://www.w3.org/2000/svg">
<path d="M21.229 36.4076C19.3424 33.9683 1.74481 14.5833 5.12774 13.2748C5.41466 13.1673 5.71642 13.1301 6.00229 13.167C6.28815 13.204 6.5478 13.3136 6.75414 13.4848L25.9945 29.5744C28.7594 31.8683 30.646 31.4644 31.6543 28.3628L40.4207 1.61142C40.5685 1.1811 40.8927 0.762981 41.3477 0.416026C42.0958 -0.143987 42.8279 -0.138636 43.5435 0.432147C43.7442 0.591079 43.905 0.782679 44.0126 0.990751C44.1202 1.19882 44.1714 1.41728 44.1615 1.62759C43.8362 7.0231 42.9904 15.6064 41.6242 27.3774C40.7622 34.8084 56.7173 37.8453 62.1983 39.8646C62.7163 40.0639 63.1429 40.3916 63.4181 40.8016C67.7607 47.4733 46.4222 42.0939 44.8933 41.7708C44.5248 41.6952 44.1452 41.691 43.7785 41.7585C43.4119 41.8259 43.0662 41.9634 42.7634 42.1624C42.4607 42.3614 42.2074 42.6174 42.0197 42.9143C41.832 43.2112 41.714 43.5424 41.6731 43.887L41.1851 47.9579C41.1651 48.1296 41.2015 48.3464 41.2915 48.5923C41.3815 48.8383 41.5231 49.1071 41.7056 49.3794C42.3725 50.3487 53.7736 65.8729 44.9584 62.529C43.8525 62.109 41.3424 59.8851 37.4282 55.8573C37.2621 55.685 37.043 55.5762 36.8141 55.5522C36.5852 55.5283 36.3633 55.591 36.1921 55.728C35.3572 56.385 34.8259 57.1927 34.5982 58.1512C34.4621 58.7546 34.22 59.2412 33.9151 59.5242C23.3922 69.2168 35.8831 36.8923 21.7984 45.9709C16.0626 49.6649 10.0719 52.8472 3.82653 55.518C3.31164 55.7372 2.76569 55.7829 2.28152 55.6473C-2.20736 54.355 0.964052 51.3987 3.01333 50.2033C9.35632 46.4556 15.3849 42.2447 21.099 37.5707C21.2652 37.4295 21.3712 37.2307 21.3954 37.0147C21.4195 36.7987 21.36 36.5816 21.229 36.4076Z" fill="#FFB94F"/>
</svg>
