<svg width="43" height="38" viewBox="0 0 43 38" fill="none" xmlns="http://www.w3.org/2000/svg">
<path d="M16.6229 14.3193C16.6539 14.4696 16.6443 14.6249 16.5947 14.7704C16.5451 14.9158 16.4573 15.0467 16.3396 15.1505C16.2219 15.2544 16.0782 15.3277 15.9222 15.3635C15.7662 15.3994 15.6031 15.3966 15.4484 15.3554C11.765 14.3781 8.02297 13.7129 4.22223 13.36C4.08376 13.3497 3.9411 13.3823 3.80916 13.4545C3.67723 13.5267 3.561 13.6358 3.47279 13.7701C1.54689 16.7571 10.4123 18.4713 11.9652 18.9173C14.1119 19.5242 14.1533 20.2045 12.0895 20.9583L0.789118 25.0977C0.63132 25.1555 0.492718 25.2495 0.387846 25.3698C0.282975 25.49 0.215706 25.6322 0.193163 25.7812C-0.138497 27.9631 0.848387 28.7428 3.15386 28.1201C8.73387 26.6116 13.9236 25.0483 18.7229 23.4302C20.2109 22.925 20.8953 23.4604 20.7763 25.0364L19.9369 36.1185C19.9243 36.2809 19.9528 36.4392 20.0183 36.5711C20.0837 36.7029 20.183 36.8019 20.3021 36.854C21.0457 37.1653 21.7909 37.1837 22.538 36.909C22.6342 36.8753 22.7298 36.7843 22.8133 36.6466C22.8968 36.509 22.9649 36.3304 23.0098 36.1316C23.9154 32.0249 25.1545 28.011 26.7269 24.09C27.272 22.7325 28.1052 22.574 29.2266 23.6145C32.2721 26.4287 35.3933 29.1544 38.5901 31.7914C39.8128 32.7999 40.5859 32.6417 40.9091 31.3168C40.9523 31.1452 40.9571 30.9703 40.9232 30.8074C40.8892 30.6444 40.8174 30.4984 40.7141 30.382L35.2421 24.2463C33.8007 22.6277 34.0244 21.7003 35.9132 21.464L40.686 20.8638C40.917 20.8375 41.1283 20.7982 41.2901 20.7517C41.4519 20.7051 41.5562 20.6535 41.5884 20.6041C42.3696 19.5479 42.248 18.6789 41.2235 17.9971C40.9815 17.8326 40.7078 17.7479 40.4422 17.7552L33.1657 17.9993C31.3204 18.0588 30.4249 17.1495 30.479 15.2714C30.528 13.6265 32.8734 6.99837 29.8208 7.23091C29.6643 7.24292 29.5171 7.28805 29.3938 7.36168C29.2706 7.4353 29.1758 7.53482 29.1189 7.65029L25.3595 15.0038C25.2669 15.1825 25.1291 15.3339 24.9594 15.4434C24.7898 15.553 24.5939 15.617 24.3905 15.6294C24.1872 15.6418 23.9832 15.6021 23.7982 15.5142C23.6131 15.4263 23.4532 15.293 23.3338 15.1273C20.4151 11.0206 17.8023 6.60681 15.4957 1.88587C13.266 -2.68737 13.1134 2.99415 13.6629 4.45651C14.9739 7.9221 15.9605 11.2097 16.6229 14.3193Z" fill="#FFD700"/>
</svg>
