<svg width="93" height="92" viewBox="0 0 93 92" fill="none" xmlns="http://www.w3.org/2000/svg">
  <path d="M1.77107 33.9639C9.59081 39.5919 17.1876 45.253 24.5612 50.947C25.3653 51.5638 25.6406 52.3623 25.3873 53.3425C22.4026 65.0281 19.7124 76.7853 17.317 88.614C16.9948 90.233 17.0856 93.0167 19.7124 90.4147C23.0496 87.1051 31.4889 77.5177 45.0302 61.6524C46.2913 60.171 47.7369 58.9155 49.3669 57.8857C49.5759 57.752 49.8491 57.691 50.1434 57.7122C63.6682 58.7255 77.1628 58.3731 90.6271 56.6549C92.3397 56.4346 92.7279 55.8234 91.7918 54.8211C91.0924 54.0777 90.3187 53.4279 89.4706 52.8717C81.9097 47.9265 74.2139 43.2732 66.3831 38.9118C66.0577 38.7279 65.7934 38.453 65.623 38.1211C65.4527 37.7892 65.3838 37.415 65.4249 37.045C66.4822 27.5236 67.4927 17.9995 68.4564 8.47259C68.7042 6 68.674 3.54396 68.3656 1.10441C68.2114 -0.107096 67.5781 -0.321862 66.4657 0.460113C65.6838 1.0108 65.0201 1.67162 64.475 2.44258C57.2555 12.6578 49.667 23.0272 41.7096 33.5509C41.5578 33.7508 41.3576 33.9088 41.1278 34.01C40.898 34.1111 40.6462 34.1521 40.3962 34.1291C27.9067 32.9121 15.3483 31.706 2.72102 30.5111C-0.987853 30.1641 -0.500516 32.3201 1.77107 33.9639Z" fill="#FFD700"/>
  <path d="M1.77107 33.9647C-0.500516 32.3209 -0.987853 30.165 2.72102 30.5119C15.3483 31.7069 27.9067 32.9129 40.3962 34.1299C40.6462 34.153 40.898 34.112 41.1278 34.0108C41.3576 33.9097 41.5578 33.7517 41.7096 33.5517C49.667 23.0281 57.2555 12.6587 64.475 2.44343C65.0201 1.67247 65.6838 1.01165 66.4657 0.460967C67.5781 -0.321008 68.2114 -0.106241 68.3656 1.10527C68.674 3.54481 68.7042 6.00086 68.4564 8.47344C67.4927 18.0003 66.4822 27.5244 65.4249 37.0458C65.3838 37.4158 65.4527 37.79 65.623 38.1219C65.7934 38.4538 66.0577 38.7288 66.3831 38.9126C74.2139 43.2741 81.9097 47.9274 89.4706 52.8725C90.3187 53.4287 91.0924 54.0786 91.7918 54.822C92.7279 55.8242 92.3397 56.4355 90.6271 56.6558C77.1628 58.3739 63.6682 58.7263 50.1434 57.7131C49.8491 57.6918 49.5759 57.7529 49.3669 57.8865C47.7369 58.9163 46.2913 60.1719 45.0302 61.6532C31.4889 77.5185 23.0496 87.106 19.7124 90.4156C17.0856 93.0176 16.9948 90.2339 17.317 88.6149C19.7124 76.7861 22.4026 65.029 25.3873 53.3434C25.6406 52.3632 25.3653 51.5647 24.5612 50.9479C17.1876 45.2538 9.59081 39.5928 1.77107 33.9647Z" fill="#FFD700"/>
</svg>
