<svg version="1.2" xmlns="http://www.w3.org/2000/svg" viewBox="0 0 1442 306" width="1442" height="306">
	<title>Rectangle 52-svg</title>
	<style>
		.s0 { fill: hsl(212, 70%, 20%) } 
	</style>
	<path id="Layer" class="s0" d="m0 116.9c0 0 214-58.4 353.5-81.3 108.5-17.9 265.1-29.7 332.3-34.2 21.8-1.5 43.6-1.2 65.4 0.8l61.5 5.4c212.5 18.6 423 55.2 629.3 109.3v1582.3l-118.6-12.3c-29.9-3.1-60.2-0.1-88.9 9l-15.6 4.9c-43.9 13.8-91.5 10.2-132.8-10-40.3-19.7-86.4-23.6-129.5-11l-3.8 1.1c-40.4 11.9-83.6 10-122.7-5.3l-12.4-4.9c-53.5-20.9-112.9-20.9-166.4-0.1l-3.4 1.3c-45.5 17.8-95.4 21.1-142.8 9.5l-16.7-4.1c-46-11.2-94.2-9.3-139.2 5.4l-13.3 4.4c-45.6 15-94.9 14.1-139.9-2.4-43.5-15.9-91-17.3-135.3-3.9l-60.7 18.4z"/>
</svg>